<svg class="animated" id="freepik_stories-piggy-bank" xmlns="http://www.w3.org/2000/svg" viewBox="0 0 500 500"
    version="1.1" xmlnsXlink="http://www.w3.org/1999/xlink">
    <style>
        svg#freepik_stories-piggy-bank:not(.animated) .animable {
            opacity: 0;
        }

        svg#freepik_stories-piggy-bank.animated #freepik--coins--inject-37 {
            animation: 3s Infinite linear floating;
            animation-delay: 0s;
        }

        svg#freepik_stories-piggy-bank.animated #freepik--Character--inject-37 {
            animation: 3s Infinite linear wind;
            animation-delay: 0s;
        }

        @keyframes floating {
            0% {
                opacity: 1;
                transform: translateY(0px);
            }

            50% {
                transform: translateY(-10px);
            }

            100% {
                opacity: 1;
                transform: translateY(0px);
            }
        }

        @keyframes wind {
            0% {
                transform: rotate(0deg);
            }

            25% {
                transform: rotate(1deg);
            }

            75% {
                transform: rotate(-1deg);
            }
        }
    </style>
    <g id="freepik--background-simple--inject-37" style="transform-origin: 245.55962371826172px 239.82677841186523px;"
        class="animable">
        <path
            d="M431.89,136.62l-2.47-4.08C408.56,98.18,370.87,77.47,331.12,80a105.69,105.69,0,0,0-15.22,2.09c-36.14,7.74-67.58,35.07-80.61,70.07-7.67,20.58-9.81,44.28-24.36,60.62C192,234,159.86,234.69,131.6,233.81S71.18,233.68,52.34,255c-11.8,13.37-15.55,32.39-14.6,50.29,2.52,47.4,35.56,89.79,77.56,110.86s91.47,22.95,137.44,13.68c64.41-13,125.66-48.63,162.47-103.7S461.35,196.06,431.89,136.62Z"
            style="fill: rgb(245, 245, 245); transform-origin: 243.47357940673828px 257.4626922607422px;"
            id="el9p6vhbxe6ab" class="animable"></path>
        <circle cx="430.36" cy="67.68" r="23.16" style="fill: rgb(245, 245, 245); transform-origin: 430.36px 67.68px;"
            id="el8mvkfur1r7o" class="animable"></circle>
    </g>
    <g id="freepik--Floor--inject-37" style="transform-origin: 249.99998474121094px 472.6199951171875px;"
        class="animable">
        <path
            d="M480.52,472.62c0,.15-103.21.26-230.51.26s-230.53-.11-230.53-.26,103.19-.26,230.53-.26S480.52,472.48,480.52,472.62Z"
            style="fill: rgb(38, 50, 56); transform-origin: 249.99998474121094px 472.6199951171875px;" id="elsm5o8hartw"
            class="animable"></path>
    </g>
    <g id="freepik--coins--inject-37" style="transform-origin: 262.5px 441.6699981689453px;" class="animable">
        <rect x="60.26" y="438.41" width="62.68" height="11.38"
            style="fill: rgb(255, 114, 94); transform-origin: 91.6px 444.1px;" id="eloy81v8xjzem" class="animable">
        </rect>
        <path d="M66.4,449.87a61.41,61.41,0,0,1,0-11.29,61.41,61.41,0,0,1,0,11.29Z"
            style="fill: rgb(38, 50, 56); transform-origin: 66.40000200271606px 444.22499084472656px;"
            id="elphbbw242cnl" class="animable"></path>
        <path d="M63,449.87a61.41,61.41,0,0,1,0-11.29,61.41,61.41,0,0,1,0,11.29Z"
            style="fill: rgb(38, 50, 56); transform-origin: 63.00000047683716px 444.22499084472656px;"
            id="elfz264saptuj" class="animable"></path>
        <path d="M73.93,449.87a61.41,61.41,0,0,1,0-11.29,61.41,61.41,0,0,1,0,11.29Z"
            style="fill: rgb(38, 50, 56); transform-origin: 73.93000078201294px 444.22499084472656px;"
            id="elm3kvxz3faoa" class="animable"></path>
        <path d="M70.51,449.87a59.15,59.15,0,0,1,0-11.29,61.41,61.41,0,0,1,0,11.29Z"
            style="fill: rgb(38, 50, 56); transform-origin: 70.50501251220703px 444.2249755859375px;" id="elxakongtexh"
            class="animable"></path>
        <path d="M81.47,449.87a59.15,59.15,0,0,1,0-11.29,61.41,61.41,0,0,1,0,11.29Z"
            style="fill: rgb(38, 50, 56); transform-origin: 81.46501350402832px 444.2249755859375px;" id="elic1o7z6ikf"
            class="animable"></path>
        <path d="M78,449.87a61.41,61.41,0,0,1,0-11.29,61.41,61.41,0,0,1,0,11.29Z"
            style="fill: rgb(38, 50, 56); transform-origin: 78px 444.22499084472656px;" id="elwqpdd6k58cs"
            class="animable"></path>
        <path d="M89,449.87a61.41,61.41,0,0,1,0-11.29,61.41,61.41,0,0,1,0,11.29Z"
            style="fill: rgb(38, 50, 56); transform-origin: 89.00000190734863px 444.22499084472656px;"
            id="el5kyd6irirmn" class="animable"></path>
        <path d="M85.57,449.87a61.41,61.41,0,0,1,0-11.29,61.41,61.41,0,0,1,0,11.29Z"
            style="fill: rgb(38, 50, 56); transform-origin: 85.57000160217285px 444.22499084472656px;"
            id="elh169w5uzchc" class="animable"></path>
        <path d="M96.53,449.87a61.41,61.41,0,0,1,0-11.29,61.41,61.41,0,0,1,0,11.29Z"
            style="fill: rgb(38, 50, 56); transform-origin: 96.52999591827393px 444.22499084472656px;" id="elfyikebziv5"
            class="animable"></path>
        <path d="M93.1,449.87a61.41,61.41,0,0,1,0-11.29,61.41,61.41,0,0,1,0,11.29Z"
            style="fill: rgb(38, 50, 56); transform-origin: 93.10000038146973px 444.22499084472656px;"
            id="elx6hsxv3pahq" class="animable"></path>
        <path d="M104.06,449.87a61.41,61.41,0,0,1,0-11.29,61.41,61.41,0,0,1,0,11.29Z"
            style="fill: rgb(38, 50, 56); transform-origin: 104.0599946975708px 444.22499084472656px;" id="eljpi46e0mg8"
            class="animable"></path>
        <path d="M100.63,449.87a61.41,61.41,0,0,1,0-11.29,61.41,61.41,0,0,1,0,11.29Z"
            style="fill: rgb(38, 50, 56); transform-origin: 100.62999439239502px 444.22499084472656px;"
            id="el6gin0jpnder" class="animable"></path>
        <path d="M111.59,449.87a61.41,61.41,0,0,1,0-11.29,61.41,61.41,0,0,1,0,11.29Z"
            style="fill: rgb(38, 50, 56); transform-origin: 111.58999061584473px 444.22499084472656px;"
            id="el0ewmdlkjd2ed" class="animable"></path>
        <path d="M108.16,449.87a61.41,61.41,0,0,1,0-11.29,61.41,61.41,0,0,1,0,11.29Z"
            style="fill: rgb(38, 50, 56); transform-origin: 108.16000699996948px 444.22499084472656px;"
            id="elnltno9ak37" class="animable"></path>
        <path d="M119.12,449.87a61.41,61.41,0,0,1,0-11.29,61.41,61.41,0,0,1,0,11.29Z"
            style="fill: rgb(38, 50, 56); transform-origin: 119.12000322341919px 444.22499084472656px;"
            id="elpu0sc148ti" class="animable"></path>
        <path d="M115.69,449.87a61.41,61.41,0,0,1,0-11.29,59.15,59.15,0,0,1,0,11.29Z"
            style="fill: rgb(38, 50, 56); transform-origin: 115.69499397277832px 444.22499084472656px;"
            id="el1lqfbx4s0jn" class="animable"></path>
        <path
            d="M122.94,438.41c0,.14-14.13.26-31.56.26s-31.56-.12-31.56-.26,14.13-.26,31.56-.26S122.94,438.26,122.94,438.41Z"
            style="fill: rgb(38, 50, 56); transform-origin: 91.3800048828125px 438.4100036621094px;" id="elsfwe389s6rs"
            class="animable"></path>
        <rect x="55.35" y="449.7" width="62.68" height="11.38"
            style="fill: rgb(255, 114, 94); transform-origin: 86.69px 455.39px;" id="elov3or3qgkf" class="animable">
        </rect>
        <path d="M61.49,461.16a61.41,61.41,0,0,1,0-11.29,61.41,61.41,0,0,1,0,11.29Z"
            style="fill: rgb(38, 50, 56); transform-origin: 61.4900004863739px 455.51499938964844px;" id="elfp5yr8p2zml"
            class="animable"></path>
        <path d="M58.06,461.16a61.41,61.41,0,0,1,0-11.29,61.41,61.41,0,0,1,0,11.29Z"
            style="fill: rgb(38, 50, 56); transform-origin: 58.060001850128174px 455.51499938964844px;"
            id="el031s3zr5cujl" class="animable"></path>
        <path d="M69,461.16a61.41,61.41,0,0,1,0-11.29,61.41,61.41,0,0,1,0,11.29Z"
            style="fill: rgb(38, 50, 56); transform-origin: 69.00000047683716px 455.51499938964844px;" id="elq33lu6us6h"
            class="animable"></path>
        <path d="M65.59,461.16a61.41,61.41,0,0,1,0-11.29,61.41,61.41,0,0,1,0,11.29Z"
            style="fill: rgb(38, 50, 56); transform-origin: 65.59000444412231px 455.51499938964844px;"
            id="elghb843kbemw" class="animable"></path>
        <path d="M76.55,461.16a61.41,61.41,0,0,1,0-11.29,61.41,61.41,0,0,1,0,11.29Z"
            style="fill: rgb(38, 50, 56); transform-origin: 76.55000019073486px 455.51499938964844px;"
            id="el7bzqpeipyuy" class="animable"></path>
        <path d="M73.12,461.16a61.41,61.41,0,0,1,0-11.29,61.41,61.41,0,0,1,0,11.29Z"
            style="fill: rgb(38, 50, 56); transform-origin: 73.12000465393066px 455.51499938964844px;"
            id="eltwlomu7qwfq" class="animable"></path>
        <path d="M84.08,461.16a61.41,61.41,0,0,1,0-11.29,61.41,61.41,0,0,1,0,11.29Z"
            style="fill: rgb(38, 50, 56); transform-origin: 84.07999897003174px 455.51499938964844px;"
            id="elagb6t4g24dg" class="animable"></path>
        <path d="M80.65,461.16a61.41,61.41,0,0,1,0-11.29,59.15,59.15,0,0,1,0,11.29Z"
            style="fill: rgb(38, 50, 56); transform-origin: 80.65499114990234px 455.51499938964844px;"
            id="el4mv2m38s92e" class="animable"></path>
        <path d="M91.62,461.16a59.15,59.15,0,0,1,0-11.29,61.41,61.41,0,0,1,0,11.29Z"
            style="fill: rgb(38, 50, 56); transform-origin: 91.61501216888428px 455.5149841308594px;" id="elkd96zh7sk1"
            class="animable"></path>
        <path d="M88.19,461.16a61.41,61.41,0,0,1,0-11.29,61.41,61.41,0,0,1,0,11.29Z"
            style="fill: rgb(38, 50, 56); transform-origin: 88.18999671936035px 455.51499938964844px;"
            id="elu5rlgi60v0h" class="animable"></path>
        <path d="M99.15,461.16a61.41,61.41,0,0,1,0-11.29,61.41,61.41,0,0,1,0,11.29Z"
            style="fill: rgb(38, 50, 56); transform-origin: 99.14999580383301px 455.51499938964844px;"
            id="elfrtsq2jm1of" class="animable"></path>
        <path d="M95.72,461.16a61.41,61.41,0,0,1,0-11.29,61.41,61.41,0,0,1,0,11.29Z"
            style="fill: rgb(38, 50, 56); transform-origin: 95.71999549865723px 455.51499938964844px;"
            id="elwqhro1m58sd" class="animable"></path>
        <path d="M106.68,461.16a61.41,61.41,0,0,1,0-11.29,61.41,61.41,0,0,1,0,11.29Z"
            style="fill: rgb(38, 50, 56); transform-origin: 106.67999410629272px 455.51499938964844px;"
            id="el2viqzxy07s1" class="animable"></path>
        <path d="M103.25,461.16a61.41,61.41,0,0,1,0-11.29,61.41,61.41,0,0,1,0,11.29Z"
            style="fill: rgb(38, 50, 56); transform-origin: 103.2499942779541px 455.51499938964844px;"
            id="elvskdyqail4n" class="animable"></path>
        <path d="M114.21,461.16a61.41,61.41,0,0,1,0-11.29,61.41,61.41,0,0,1,0,11.29Z"
            style="fill: rgb(38, 50, 56); transform-origin: 114.2099928855896px 455.51499938964844px;" id="elwd1pba5bso"
            class="animable"></path>
        <path d="M110.78,461.16a61.41,61.41,0,0,1,0-11.29,61.41,61.41,0,0,1,0,11.29Z"
            style="fill: rgb(38, 50, 56); transform-origin: 110.77999305725098px 455.51499938964844px;"
            id="eljkfq5e3sznj" class="animable"></path>
        <path d="M118,449.7c0,.14-14.1.26-31.49.26s-31.48-.12-31.48-.26,14.09-.26,31.48-.26S118,449.56,118,449.7Z"
            style="fill: rgb(38, 50, 56); transform-origin: 86.51500129699707px 449.70001220703125px;"
            id="elatnn7458gmc" class="animable"></path>
        <rect x="51.32" y="461.16" width="62.68" height="11.38"
            style="fill: rgb(255, 114, 94); transform-origin: 82.66px 466.85px;" id="eljcp0sriwvhd" class="animable">
        </rect>
        <path d="M57.46,472.62a61.41,61.41,0,0,1,0-11.29,61.41,61.41,0,0,1,0,11.29Z"
            style="fill: rgb(38, 50, 56); transform-origin: 57.45999836921692px 466.97499084472656px;"
            id="eld5csplcdsps" class="animable"></path>
        <path d="M54,472.62a61.41,61.41,0,0,1,0-11.29,61.41,61.41,0,0,1,0,11.29Z"
            style="fill: rgb(38, 50, 56); transform-origin: 53.99999928474426px 466.97499084472656px;" id="elmggt0wg0pe"
            class="animable"></path>
        <path d="M65,472.62a61.41,61.41,0,0,1,0-11.29,61.41,61.41,0,0,1,0,11.29Z"
            style="fill: rgb(38, 50, 56); transform-origin: 65.00000047683716px 466.97499084472656px;"
            id="elkuk1phbqdci" class="animable"></path>
        <path d="M61.56,472.62a61.41,61.41,0,0,1,0-11.29,59.15,59.15,0,0,1,0,11.29Z"
            style="fill: rgb(38, 50, 56); transform-origin: 61.56498956680298px 466.97499084472656px;"
            id="elqu6lg1s7rpl" class="animable"></path>
        <path d="M72.52,472.62a61.41,61.41,0,0,1,0-11.29,59.15,59.15,0,0,1,0,11.29Z"
            style="fill: rgb(38, 50, 56); transform-origin: 72.52498817443848px 466.97499084472656px;"
            id="el1e0l7c314l1" class="animable"></path>
        <path d="M69.1,472.62a61.41,61.41,0,0,1,0-11.29,61.41,61.41,0,0,1,0,11.29Z"
            style="fill: rgb(38, 50, 56); transform-origin: 69.10000038146973px 466.97499084472656px;"
            id="elyf5lgsbthsa" class="animable"></path>
        <path d="M80.06,472.62a61.41,61.41,0,0,1,0-11.29,61.41,61.41,0,0,1,0,11.29Z"
            style="fill: rgb(38, 50, 56); transform-origin: 80.05999803543091px 466.97499084472656px;"
            id="elkllm5zgz9nr" class="animable"></path>
        <path d="M76.63,472.62a61.41,61.41,0,0,1,0-11.29,61.41,61.41,0,0,1,0,11.29Z"
            style="fill: rgb(38, 50, 56); transform-origin: 76.62999773025513px 466.97499084472656px;"
            id="elgi91dsz2hwj" class="animable"></path>
        <path d="M87.59,472.62a61.41,61.41,0,0,1,0-11.29,61.41,61.41,0,0,1,0,11.29Z"
            style="fill: rgb(38, 50, 56); transform-origin: 87.58999681472778px 466.97499084472656px;" id="elnymlt1w5jx"
            class="animable"></path>
        <path d="M84.16,472.62a61.41,61.41,0,0,1,0-11.29,61.41,61.41,0,0,1,0,11.29Z"
            style="fill: rgb(38, 50, 56); transform-origin: 84.15999794006348px 466.97499084472656px;"
            id="el25872o8nlbs" class="animable"></path>
        <path d="M95.12,472.62a61.41,61.41,0,0,1,0-11.29,61.41,61.41,0,0,1,0,11.29Z"
            style="fill: rgb(38, 50, 56); transform-origin: 95.11999702453613px 466.97499084472656px;"
            id="elqysbdu0lcbm" class="animable"></path>
        <path d="M91.69,472.62a61.41,61.41,0,0,1,0-11.29,61.41,61.41,0,0,1,0,11.29Z"
            style="fill: rgb(38, 50, 56); transform-origin: 91.68999671936035px 466.97499084472656px;"
            id="el9bybysp9e9n" class="animable"></path>
        <path d="M102.65,472.62a61.41,61.41,0,0,1,0-11.29,61.41,61.41,0,0,1,0,11.29Z"
            style="fill: rgb(38, 50, 56); transform-origin: 102.64999532699585px 466.97499084472656px;"
            id="el7q620an8ugn" class="animable"></path>
        <path d="M99.22,472.62a61.41,61.41,0,0,1,0-11.29,61.41,61.41,0,0,1,0,11.29Z"
            style="fill: rgb(38, 50, 56); transform-origin: 99.21999549865723px 466.97499084472656px;"
            id="el75eldfvy1a6" class="animable"></path>
        <path d="M110.18,472.62a61.41,61.41,0,0,1,0-11.29,61.41,61.41,0,0,1,0,11.29Z"
            style="fill: rgb(38, 50, 56); transform-origin: 110.17999410629272px 466.97499084472656px;"
            id="elkyhpu4ke8bs" class="animable"></path>
        <path d="M106.75,472.62a61.41,61.41,0,0,1,0-11.29,61.41,61.41,0,0,1,0,11.29Z"
            style="fill: rgb(38, 50, 56); transform-origin: 106.7499942779541px 466.97499084472656px;"
            id="elzkcw9bv663f" class="animable"></path>
        <path d="M114,461.16c0,.15-14.1.26-31.48.26S51,461.31,51,461.16s14.09-.26,31.49-.26S114,461,114,461.16Z"
            style="fill: rgb(38, 50, 56); transform-origin: 82.5px 461.1600036621094px;" id="eljceugq57izq"
            class="animable"></path>
        <g id="elv7cxj5z6zds">
            <g style="opacity: 0.30000000000000004; transform-origin: 92.86000061035156px 451.0171468257904px;"
                class="animable">
                <path d="M63.86,449.81a95.79,95.79,0,0,0,29,2.11c9.61-.64,19.33-2.05,29-1.94Z" id="el7gwu16pz9ut"
                    style="transform-origin: 92.86000061035156px 451.0171468257904px;" class="animable"></path>
            </g>
        </g>
        <g id="elnkvyhfnyd5">
            <g style="opacity: 0.30000000000000004; transform-origin: 81.08999824523926px 462.51375567913055px;"
                class="animable">
                <path d="M52.09,461.31a95.72,95.72,0,0,0,29,2.1c9.62-.64,19.33-2.05,29-1.93Z" id="elpz8ea16ajv9"
                    style="transform-origin: 81.08999824523926px 462.51375567913055px;" class="animable"></path>
            </g>
        </g>
        <path d="M62.43,439.09c0,.14-.35.26-.78.26s-.79-.12-.79-.26.35-.27.79-.27S62.43,438.94,62.43,439.09Z"
            style="fill: rgb(255, 255, 255); transform-origin: 61.64500045776367px 439.0850067138672px;"
            id="elsxnhk4xlx6" class="animable"></path>
        <path
            d="M71.14,439.12a12.84,12.84,0,0,1-3.6.26,12.84,12.84,0,0,1-3.6-.26,12.41,12.41,0,0,1,3.6-.26A12.41,12.41,0,0,1,71.14,439.12Z"
            style="fill: rgb(255, 255, 255); transform-origin: 67.53999900817871px 439.1183418035507px;"
            id="elfx5chusn9wg" class="animable"></path>
        <path
            d="M81.08,439.12a12.84,12.84,0,0,1-3.6.26,12.79,12.79,0,0,1-3.59-.26,12.36,12.36,0,0,1,3.59-.26A12.41,12.41,0,0,1,81.08,439.12Z"
            style="fill: rgb(255, 255, 255); transform-origin: 77.4849967956543px 439.1183657348156px;"
            id="elv02uah2qfqd" class="animable"></path>
        <rect x="404" y="410.95" width="67.43" height="12.25"
            style="fill: rgb(255, 114, 94); transform-origin: 437.71500000000003px 417.075px;" id="elypc8cuo72re"
            class="animable"></rect>
        <path d="M410.61,423.28a65.93,65.93,0,0,1,0-12.14,65.93,65.93,0,0,1,0,12.14Z"
            style="fill: rgb(38, 50, 56); transform-origin: 410.6100025177002px 417.2099914550781px;" id="elofmb3o0o75"
            class="animable"></path>
        <path d="M406.92,423.28a65.93,65.93,0,0,1,0-12.14,65.93,65.93,0,0,1,0,12.14Z"
            style="fill: rgb(38, 50, 56); transform-origin: 406.92002868652344px 417.2099914550781px;"
            id="elhhrwagpczr8" class="animable"></path>
        <path d="M418.71,423.28a65.93,65.93,0,0,1,0-12.14,65.93,65.93,0,0,1,0,12.14Z"
            style="fill: rgb(38, 50, 56); transform-origin: 418.7100200653076px 417.2099914550781px;" id="el4hi8of8f38v"
            class="animable"></path>
        <path d="M415,423.28a65.93,65.93,0,0,1,0-12.14,63.67,63.67,0,0,1,0,12.14Z"
            style="fill: rgb(38, 50, 56); transform-origin: 415.0049934387207px 417.2099914550781px;" id="el8evibliz7e"
            class="animable"></path>
        <path d="M426.82,423.28a63.67,63.67,0,0,1,0-12.14,65.93,65.93,0,0,1,0,12.14Z"
            style="fill: rgb(38, 50, 56); transform-origin: 426.81501388549805px 417.2099609375px;" id="el3vv98o40jn8"
            class="animable"></path>
        <path d="M423.13,423.28a65.93,65.93,0,0,1,0-12.14,65.93,65.93,0,0,1,0,12.14Z"
            style="fill: rgb(38, 50, 56); transform-origin: 423.13000106811523px 417.2099914550781px;"
            id="eljdc8ofcz08j" class="animable"></path>
        <path d="M434.92,423.28a65.93,65.93,0,0,1,0-12.14,65.93,65.93,0,0,1,0,12.14Z"
            style="fill: rgb(38, 50, 56); transform-origin: 434.92003059387207px 417.2099914550781px;"
            id="elfkgzqtvt0xf" class="animable"></path>
        <path d="M431.23,423.28a65.93,65.93,0,0,1,0-12.14,65.93,65.93,0,0,1,0,12.14Z"
            style="fill: rgb(38, 50, 56); transform-origin: 431.2300262451172px 417.2099914550781px;" id="el3d97xe1pzcs"
            class="animable"></path>
        <path d="M443,423.28a65.93,65.93,0,0,1,0-12.14,65.93,65.93,0,0,1,0,12.14Z"
            style="fill: rgb(38, 50, 56); transform-origin: 442.99998474121094px 417.2099914550781px;" id="el7v0pyt98gg"
            class="animable"></path>
        <path d="M439.33,423.28a65.93,65.93,0,0,1,0-12.14,65.93,65.93,0,0,1,0,12.14Z"
            style="fill: rgb(38, 50, 56); transform-origin: 439.3300018310547px 417.2099914550781px;" id="elnyc90cs2i3"
            class="animable"></path>
        <path d="M451.12,423.28a65.93,65.93,0,0,1,0-12.14,65.93,65.93,0,0,1,0,12.14Z"
            style="fill: rgb(38, 50, 56); transform-origin: 451.11997985839844px 417.2099914550781px;"
            id="el67jux6rhumk" class="animable"></path>
        <path d="M447.43,423.28a65.93,65.93,0,0,1,0-12.14,63.67,63.67,0,0,1,0,12.14Z"
            style="fill: rgb(38, 50, 56); transform-origin: 447.43498611450195px 417.2099914550781px;" id="elzk0bbj4ogq"
            class="animable"></path>
        <path d="M459.23,423.28a65.93,65.93,0,0,1,0-12.14,65.93,65.93,0,0,1,0,12.14Z"
            style="fill: rgb(38, 50, 56); transform-origin: 459.2300281524658px 417.2099914550781px;" id="elk6l6mshzzu"
            class="animable"></path>
        <path d="M455.54,423.28a65.93,65.93,0,0,1,0-12.14,65.93,65.93,0,0,1,0,12.14Z"
            style="fill: rgb(38, 50, 56); transform-origin: 455.54002380371094px 417.2099914550781px;"
            id="el6htlb9zd7uj" class="animable"></path>
        <path d="M467.33,423.28a65.93,65.93,0,0,1,0-12.14,65.93,65.93,0,0,1,0,12.14Z"
            style="fill: rgb(38, 50, 56); transform-origin: 467.3300132751465px 417.2099914550781px;" id="elthsdpyndcqq"
            class="animable"></path>
        <path d="M463.64,423.28a65.93,65.93,0,0,1,0-12.14,65.93,65.93,0,0,1,0,12.14Z"
            style="fill: rgb(38, 50, 56); transform-origin: 463.63999938964844px 417.2099914550781px;"
            id="el34b9q0yhdyi" class="animable"></path>
        <path d="M471.44,411c0,.16-15.17.28-33.88.28s-33.87-.12-33.87-.28,15.16-.28,33.87-.28S471.44,410.8,471.44,411Z"
            style="fill: rgb(38, 50, 56); transform-origin: 437.56500244140625px 411px;" id="elmtx93x14s5r"
            class="animable"></path>
        <rect x="399.59" y="423.39" width="67.43" height="12.25"
            style="fill: rgb(255, 114, 94); transform-origin: 433.30499999999995px 429.515px;" id="eloinkezshwaq"
            class="animable"></rect>
        <path d="M406.2,435.72a66,66,0,0,1,0-12.15,66,66,0,0,1,0,12.15Z"
            style="fill: rgb(38, 50, 56); transform-origin: 406.1999855041504px 429.64500427246094px;"
            id="elw6clkkmq7ym" class="animable"></path>
        <path d="M402.51,435.72a66,66,0,0,1,0-12.15,66,66,0,0,1,0,12.15Z"
            style="fill: rgb(38, 50, 56); transform-origin: 402.50998306274414px 429.64500427246094px;"
            id="elbjsvfvoienj" class="animable"></path>
        <path d="M414.3,435.72a66,66,0,0,1,0-12.15,66,66,0,0,1,0,12.15Z"
            style="fill: rgb(38, 50, 56); transform-origin: 414.2999668121338px 429.64500427246094px;"
            id="elq5zx3ytzeui" class="animable"></path>
        <path d="M410.61,435.72a66,66,0,0,1,0-12.15,66,66,0,0,1,0,12.15Z"
            style="fill: rgb(38, 50, 56); transform-origin: 410.60996437072754px 429.64500427246094px;"
            id="el2se8jh4x7a6" class="animable"></path>
        <path d="M422.4,435.72a66,66,0,0,1,0-12.15,66,66,0,0,1,0,12.15Z"
            style="fill: rgb(38, 50, 56); transform-origin: 422.40000343322754px 429.64500427246094px;"
            id="el8x55r15xi4" class="animable"></path>
        <path d="M418.71,435.72a66,66,0,0,1,0-12.15,66,66,0,0,1,0,12.15Z"
            style="fill: rgb(38, 50, 56); transform-origin: 418.7100009918213px 429.64500427246094px;"
            id="el3ze68168vcn" class="animable"></path>
        <path d="M430.5,435.72a66,66,0,0,1,0-12.15,66,66,0,0,1,0,12.15Z"
            style="fill: rgb(38, 50, 56); transform-origin: 430.49997901916504px 429.64500427246094px;"
            id="ele5q7it0zeyp" class="animable"></path>
        <path d="M426.82,435.72a63.78,63.78,0,0,1,0-12.15,66,66,0,0,1,0,12.15Z"
            style="fill: rgb(38, 50, 56); transform-origin: 426.8150882720947px 429.64500427246094px;" id="el9tej9m672i"
            class="animable"></path>
        <path d="M438.61,435.72a66,66,0,0,1,0-12.15,66,66,0,0,1,0,12.15Z"
            style="fill: rgb(38, 50, 56); transform-origin: 438.60995864868164px 429.64500427246094px;"
            id="elqcjli44ca5" class="animable"></path>
        <path d="M434.92,435.72a66,66,0,0,1,0-12.15,66,66,0,0,1,0,12.15Z"
            style="fill: rgb(38, 50, 56); transform-origin: 434.92002296447754px 429.64500427246094px;"
            id="el0wz944fiiptm" class="animable"></path>
        <path d="M446.71,435.72a66,66,0,0,1,0-12.15,66,66,0,0,1,0,12.15Z"
            style="fill: rgb(38, 50, 56); transform-origin: 446.7099857330322px 429.64500427246094px;" id="elmzng216gh3"
            class="animable"></path>
        <path d="M443,435.72a66,66,0,0,1,0-12.15,66,66,0,0,1,0,12.15Z"
            style="fill: rgb(38, 50, 56); transform-origin: 443.0000114440918px 429.64500427246094px;" id="elx031myciug"
            class="animable"></path>
        <path d="M454.81,435.72a66,66,0,0,1,0-12.15,66,66,0,0,1,0,12.15Z"
            style="fill: rgb(38, 50, 56); transform-origin: 454.81000328063965px 429.64500427246094px;"
            id="elr0cxqhfnj4" class="animable"></path>
        <path d="M451.12,435.72a66,66,0,0,1,0-12.15,66,66,0,0,1,0,12.15Z"
            style="fill: rgb(38, 50, 56); transform-origin: 451.11998748779297px 429.64500427246094px;"
            id="el78ss4q3vai7" class="animable"></path>
        <path d="M462.91,435.72a66,66,0,0,1,0-12.15,66,66,0,0,1,0,12.15Z"
            style="fill: rgb(38, 50, 56); transform-origin: 462.9100532531738px 429.64501953125px;" id="elfqiojy1gtd"
            class="animable"></path>
        <path d="M459.23,435.72a66,66,0,0,1,0-12.15,66,66,0,0,1,0,12.15Z"
            style="fill: rgb(38, 50, 56); transform-origin: 459.2300052642822px 429.64500427246094px;" id="elqi5u7r44mq"
            class="animable"></path>
        <path d="M467,423.39c0,.16-15.16.28-33.87.28s-33.87-.12-33.87-.28,15.16-.28,33.87-.28S467,423.24,467,423.39Z"
            style="fill: rgb(38, 50, 56); transform-origin: 433.1300048828125px 423.3900146484375px;" id="elz3mo79pjxaf"
            class="animable"></path>
        <rect x="405.1" y="435.72" width="67.43" height="12.25"
            style="fill: rgb(255, 114, 94); transform-origin: 438.81500000000005px 441.845px;" id="el69re7e6oe8d"
            class="animable"></rect>
        <path d="M411.71,448.05a66,66,0,0,1,0-12.15,66,66,0,0,1,0,12.15Z"
            style="fill: rgb(38, 50, 56); transform-origin: 411.71002197265625px 441.9749755859375px;"
            id="elwiqu9b9mowg" class="animable"></path>
        <path d="M408,448.05a66,66,0,0,1,0-12.15,66,66,0,0,1,0,12.15Z"
            style="fill: rgb(38, 50, 56); transform-origin: 408.000036239624px 441.9749755859375px;" id="elpjdqi2ri5w"
            class="animable"></path>
        <path d="M419.81,448.05a66,66,0,0,1,0-12.15,66,66,0,0,1,0,12.15Z"
            style="fill: rgb(38, 50, 56); transform-origin: 419.8100337982178px 441.9749755859375px;" id="elb6r04jo34lu"
            class="animable"></path>
        <path d="M416.12,448.05a66,66,0,0,1,0-12.15,66,66,0,0,1,0,12.15Z"
            style="fill: rgb(38, 50, 56); transform-origin: 416.1200313568115px 441.9749755859375px;" id="elk7jzyjn5r6g"
            class="animable"></path>
        <path d="M427.91,448.05a66,66,0,0,1,0-12.15,66,66,0,0,1,0,12.15Z"
            style="fill: rgb(38, 50, 56); transform-origin: 427.9100399017334px 441.9749755859375px;" id="el7bsepssxdrd"
            class="animable"></path>
        <path d="M424.22,448.05a66,66,0,0,1,0-12.15,66,66,0,0,1,0,12.15Z"
            style="fill: rgb(38, 50, 56); transform-origin: 424.22003746032715px 441.9749755859375px;" id="elj6q7k6ow3p"
            class="animable"></path>
        <path d="M436,448.05a66,66,0,0,1,0-12.15,63.78,63.78,0,0,1,0,12.15Z"
            style="fill: rgb(38, 50, 56); transform-origin: 436.0049133300781px 441.9749755859375px;" id="elorm68cln0f9"
            class="animable"></path>
        <path d="M432.33,448.05a66,66,0,0,1,0-12.15,66,66,0,0,1,0,12.15Z"
            style="fill: rgb(38, 50, 56); transform-origin: 432.33002281188965px 441.9749755859375px;"
            id="eldynluc1efah" class="animable"></path>
        <path d="M444.12,448.05a66,66,0,0,1,0-12.15,66,66,0,0,1,0,12.15Z"
            style="fill: rgb(38, 50, 56); transform-origin: 444.1200313568115px 441.9749755859375px;" id="el3swl57o0m0h"
            class="animable"></path>
        <path d="M440.43,448.05a66,66,0,0,1,0-12.15,66,66,0,0,1,0,12.15Z"
            style="fill: rgb(38, 50, 56); transform-origin: 440.4300289154053px 441.9749755859375px;" id="eldshqmm96d8"
            class="animable"></path>
        <path d="M452.22,448.05a66,66,0,0,1,0-12.15,66,66,0,0,1,0,12.15Z"
            style="fill: rgb(38, 50, 56); transform-origin: 452.22003746032715px 441.9749755859375px;"
            id="el1hy4xecf9gp" class="animable"></path>
        <path d="M448.53,448.05a66,66,0,0,1,0-12.15,66,66,0,0,1,0,12.15Z"
            style="fill: rgb(38, 50, 56); transform-origin: 448.5300350189209px 441.9749755859375px;" id="eltksylm72f4i"
            class="animable"></path>
        <path d="M460.32,448.05a66,66,0,0,1,0-12.15,66,66,0,0,1,0,12.15Z"
            style="fill: rgb(38, 50, 56); transform-origin: 460.3200435638428px 441.9749755859375px;" id="el5gh78qsfco9"
            class="animable"></path>
        <path d="M456.63,448.05a66,66,0,0,1,0-12.15,66,66,0,0,1,0,12.15Z"
            style="fill: rgb(38, 50, 56); transform-origin: 456.6300411224365px 441.9749755859375px;" id="elj86f6qlneaa"
            class="animable"></path>
        <path d="M468.42,448.05a66,66,0,0,1,0-12.15,63.78,63.78,0,0,1,0,12.15Z"
            style="fill: rgb(38, 50, 56); transform-origin: 468.4249153137207px 441.9749755859375px;" id="elbscxlo28n0l"
            class="animable"></path>
        <path d="M464.74,448.05a66,66,0,0,1,0-12.15,66,66,0,0,1,0,12.15Z"
            style="fill: rgb(38, 50, 56); transform-origin: 464.74004554748535px 441.9750061035156px;"
            id="elqk545ai68kc" class="animable"></path>
        <path d="M472.53,435.72c0,.16-15.2.28-33.95.28s-34-.12-34-.28,15.2-.28,34-.28S472.53,435.57,472.53,435.72Z"
            style="fill: rgb(38, 50, 56); transform-origin: 438.55499267578125px 435.7200012207031px;"
            id="elgetmd4z8lfl" class="animable"></path>
        <rect x="399.81" y="447.87" width="67.43" height="12.25"
            style="fill: rgb(255, 114, 94); transform-origin: 433.525px 453.995px;" id="el9bpyxnn5kj7" class="animable">
        </rect>
        <path d="M406.42,460.2a66,66,0,0,1,0-12.15,66,66,0,0,1,0,12.15Z"
            style="fill: rgb(38, 50, 56); transform-origin: 406.4200496673584px 454.12501525878906px;" id="ell0y86i6ddn"
            class="animable"></path>
        <path d="M402.73,460.2a66,66,0,0,1,0-12.15,66,66,0,0,1,0,12.15Z"
            style="fill: rgb(38, 50, 56); transform-origin: 402.73004722595215px 454.12501525878906px;"
            id="el2p38xrvbe18" class="animable"></path>
        <path d="M414.52,460.2a66,66,0,0,1,0-12.15,66,66,0,0,1,0,12.15Z"
            style="fill: rgb(38, 50, 56); transform-origin: 414.5200252532959px 454.12501525878906px;"
            id="elsller3607je" class="animable"></path>
        <path d="M410.83,460.2a66,66,0,0,1,0-12.15,63.78,63.78,0,0,1,0,12.15Z"
            style="fill: rgb(38, 50, 56); transform-origin: 410.83489990234375px 454.125px;" id="eltdqfmgqm12f"
            class="animable"></path>
        <path d="M422.63,460.2a66,66,0,0,1,0-12.15,66,66,0,0,1,0,12.15Z"
            style="fill: rgb(38, 50, 56); transform-origin: 422.6300411224365px 454.12501525878906px;"
            id="el4ynml2jdngp" class="animable"></path>
        <path d="M418.94,460.2a66,66,0,0,1,0-12.15,66,66,0,0,1,0,12.15Z"
            style="fill: rgb(38, 50, 56); transform-origin: 418.9400386810303px 454.12501525878906px;" id="elj2grxxkp9w"
            class="animable"></path>
        <path d="M430.73,460.2a66,66,0,0,1,0-12.15,66,66,0,0,1,0,12.15Z"
            style="fill: rgb(38, 50, 56); transform-origin: 430.73004722595215px 454.12501525878906px;"
            id="el72e700kx0zg" class="animable"></path>
        <path d="M427,460.2a66,66,0,0,1,0-12.15,66,66,0,0,1,0,12.15Z"
            style="fill: rgb(38, 50, 56); transform-origin: 427.00000381469727px 454.12501525878906px;"
            id="el7mbrjrvvkj4" class="animable"></path>
        <path d="M438.83,460.2a66,66,0,0,1,0-12.15,66,66,0,0,1,0,12.15Z"
            style="fill: rgb(38, 50, 56); transform-origin: 438.83002281188965px 454.12501525878906px;"
            id="elwyxf6sr2wi" class="animable"></path>
        <path d="M435.14,460.2a66,66,0,0,1,0-12.15,66,66,0,0,1,0,12.15Z"
            style="fill: rgb(38, 50, 56); transform-origin: 435.1400508880615px 454.12501525878906px;"
            id="elfaftd5h8l2v" class="animable"></path>
        <path d="M446.93,460.2a66,66,0,0,1,0-12.15,66,66,0,0,1,0,12.15Z"
            style="fill: rgb(38, 50, 56); transform-origin: 446.9299964904785px 454.12501525878906px;"
            id="eldbpvhbn9529" class="animable"></path>
        <path d="M443.25,460.2a63.78,63.78,0,0,1,0-12.15,66,66,0,0,1,0,12.15Z"
            style="fill: rgb(38, 50, 56); transform-origin: 443.2450942993164px 454.12501525878906px;"
            id="el3x0an7wc3sc" class="animable"></path>
        <path d="M455,460.2a66,66,0,0,1,0-12.15,66,66,0,0,1,0,12.15Z"
            style="fill: rgb(38, 50, 56); transform-origin: 455.00000381469727px 454.12501525878906px;"
            id="elaxirubnfnjl" class="animable"></path>
        <path d="M451.35,460.2a66,66,0,0,1,0-12.15,66,66,0,0,1,0,12.15Z"
            style="fill: rgb(38, 50, 56); transform-origin: 451.35004234313965px 454.12501525878906px;"
            id="elsap2ndnpamt" class="animable"></path>
        <path d="M463.14,460.2a66,66,0,0,1,0-12.15,66,66,0,0,1,0,12.15Z"
            style="fill: rgb(38, 50, 56); transform-origin: 463.1400375366211px 454.1250305175781px;" id="elf8mkyup15n8"
            class="animable"></path>
        <path d="M459.45,460.2a66,66,0,0,1,0-12.15,66,66,0,0,1,0,12.15Z"
            style="fill: rgb(38, 50, 56); transform-origin: 459.4500160217285px 454.12501525878906px;" id="elxq5l5d4fts"
            class="animable"></path>
        <path
            d="M467.25,447.87c0,.16-15.17.28-33.88.28s-33.87-.12-33.87-.28,15.16-.28,33.87-.28S467.25,447.72,467.25,447.87Z"
            style="fill: rgb(38, 50, 56); transform-origin: 433.375px 447.8699951171875px;" id="elvfmg1lfq6r"
            class="animable"></path>
        <rect x="406.57" y="460.29" width="67.43" height="12.25"
            style="fill: rgb(255, 114, 94); transform-origin: 440.28499999999997px 466.415px;" id="eldassast69wt"
            class="animable"></rect>
        <path d="M413.18,472.62a66,66,0,0,1,0-12.15,66,66,0,0,1,0,12.15Z"
            style="fill: rgb(38, 50, 56); transform-origin: 413.1799964904785px 466.5449981689453px;" id="elw9rlhtkbcw"
            class="animable"></path>
        <path d="M409.49,472.62a66,66,0,0,1,0-12.15,66,66,0,0,1,0,12.15Z"
            style="fill: rgb(38, 50, 56); transform-origin: 409.48999404907227px 466.5449981689453px;" id="eleqor7tmz9m"
            class="animable"></path>
        <path d="M421.28,472.62a66,66,0,0,1,0-12.15,66,66,0,0,1,0,12.15Z"
            style="fill: rgb(38, 50, 56); transform-origin: 421.28000259399414px 466.5449981689453px;"
            id="elhx1vfqzh4m5" class="animable"></path>
        <path d="M417.59,472.62a66,66,0,0,1,0-12.15,66,66,0,0,1,0,12.15Z"
            style="fill: rgb(38, 50, 56); transform-origin: 417.5900001525879px 466.5449981689453px;" id="eljuvuu053l3c"
            class="animable"></path>
        <path d="M429.38,472.62a66,66,0,0,1,0-12.15,66,66,0,0,1,0,12.15Z"
            style="fill: rgb(38, 50, 56); transform-origin: 429.38000869750977px 466.5449981689453px;" id="elmhafs2h2cf"
            class="animable"></path>
        <path d="M425.7,472.62a63.78,63.78,0,0,1,0-12.15,66,66,0,0,1,0,12.15Z"
            style="fill: rgb(38, 50, 56); transform-origin: 425.6950931549072px 466.54498291015625px;"
            id="elhnew6oeofgj" class="animable"></path>
        <path d="M437.49,472.62a66,66,0,0,1,0-12.15,66,66,0,0,1,0,12.15Z"
            style="fill: rgb(38, 50, 56); transform-origin: 437.48999404907227px 466.5449981689453px;" id="elps391b1vn7"
            class="animable"></path>
        <path d="M433.8,472.62a66,66,0,0,1,0-12.15,66,66,0,0,1,0,12.15Z"
            style="fill: rgb(38, 50, 56); transform-origin: 433.799991607666px 466.5449981689453px;" id="el3oe3v7nvpj2"
            class="animable"></path>
        <path d="M445.59,472.62a66,66,0,0,1,0-12.15,66,66,0,0,1,0,12.15Z"
            style="fill: rgb(38, 50, 56); transform-origin: 445.5900001525879px 466.5449981689453px;" id="elkoijr13kqph"
            class="animable"></path>
        <path d="M441.9,472.62a66,66,0,0,1,0-12.15,66,66,0,0,1,0,12.15Z"
            style="fill: rgb(38, 50, 56); transform-origin: 441.89999771118164px 466.5449981689453px;" id="elpxuwni7q85"
            class="animable"></path>
        <path d="M453.69,472.62a66,66,0,0,1,0-12.15,66,66,0,0,1,0,12.15Z"
            style="fill: rgb(38, 50, 56); transform-origin: 453.6900005340576px 466.5449981689453px;" id="elpz8xfodxjn"
            class="animable"></path>
        <path d="M450,472.62a66,66,0,0,1,0-12.15,66,66,0,0,1,0,12.15Z"
            style="fill: rgb(38, 50, 56); transform-origin: 450.00000381469727px 466.5449981689453px;" id="elwptna1o15q"
            class="animable"></path>
        <path d="M461.79,472.62a66,66,0,0,1,0-12.15,66,66,0,0,1,0,12.15Z"
            style="fill: rgb(38, 50, 56); transform-origin: 461.7900333404541px 466.5449981689453px;" id="elj1139aqrx7"
            class="animable"></path>
        <path d="M458.11,472.62a66,66,0,0,1,0-12.15,66,66,0,0,1,0,12.15Z"
            style="fill: rgb(38, 50, 56); transform-origin: 458.10998916625977px 466.5449981689453px;"
            id="elhaw0fj0on4d" class="animable"></path>
        <path d="M469.9,472.62a66,66,0,0,1,0-12.15,66,66,0,0,1,0,12.15Z"
            style="fill: rgb(38, 50, 56); transform-origin: 469.90001678466797px 466.5449981689453px;" id="elutffq4egtd"
            class="animable"></path>
        <path d="M466.21,472.62a66,66,0,0,1,0-12.15,66,66,0,0,1,0,12.15Z"
            style="fill: rgb(38, 50, 56); transform-origin: 466.2099952697754px 466.5449981689453px;" id="elowdbfreaeaj"
            class="animable"></path>
        <path d="M474,460.29c0,.16-15.16.28-33.87.28s-33.87-.12-33.87-.28,15.16-.28,33.87-.28S474,460.14,474,460.29Z"
            style="fill: rgb(38, 50, 56); transform-origin: 440.1300048828125px 460.2900085449219px;" id="elo3gzrptgo4"
            class="animable"></path>
        <g id="el5pkqud33c8w">
            <g style="opacity: 0.30000000000000004; transform-origin: 436.260009765625px 437.0221914052963px;"
                class="animable">
                <path d="M405.1,435.72A102.78,102.78,0,0,0,436.25,438c10.35-.69,20.8-2.21,31.17-2.09Z" id="elezbbh37uto"
                    style="transform-origin: 436.260009765625px 437.0221914052963px;" class="animable"></path>
            </g>
        </g>
        <g id="elhpcb4rxxnmk">
            <g style="opacity: 0.30000000000000004; transform-origin: 436.8699951171875px 424.8284704685211px;"
                class="animable">
                <path d="M405.71,423.53a102.78,102.78,0,0,0,31.15,2.27c10.35-.69,20.8-2.21,31.17-2.09Z"
                    id="elcqzi2c48og5" style="transform-origin: 436.8699951171875px 424.8284704685211px;"
                    class="animable"></path>
            </g>
        </g>
        <g id="eljj6u5286tfn">
            <g style="opacity: 0.30000000000000004; transform-origin: 440.1600036621094px 449.2984552383423px;"
                class="animable">
                <path d="M409,448a102.78,102.78,0,0,0,31.15,2.27c10.35-.69,20.8-2.21,31.17-2.08Z" id="elfi8s49cimj9"
                    style="transform-origin: 440.1600036621094px 449.2984552383423px;" class="animable"></path>
            </g>
        </g>
        <g id="elo81zj88pwyj">
            <g style="opacity: 0.30000000000000004; transform-origin: 437.489990234375px 461.5133298635483px;"
                class="animable">
                <path d="M406.33,460.22a103.1,103.1,0,0,0,31.15,2.26c10.35-.68,20.8-2.21,31.17-2.08Z" id="elsnvk82qy6ap"
                    style="transform-origin: 437.489990234375px 461.5133298635483px;" class="animable"></path>
            </g>
        </g>
        <path d="M405.24,419.33a20.24,20.24,0,0,1,0-6.71,20.24,20.24,0,0,1,0,6.71Z"
            style="fill: rgb(255, 255, 255); transform-origin: 405.2399616241455px 415.9749755859375px;"
            id="elh9uzcnbh2cf" class="animable"></path>
        <path d="M401,432.41a23.22,23.22,0,0,1,0-7.19,23.22,23.22,0,0,1,0,7.19Z"
            style="fill: rgb(255, 255, 255); transform-origin: 401.0000114440918px 428.81500244140625px;"
            id="elbln5q6u4r54" class="animable"></path>
        <path d="M407,445a18.31,18.31,0,0,1,0-6.38,18.31,18.31,0,0,1,0,6.38Z"
            style="fill: rgb(255, 255, 255); transform-origin: 406.99999618530273px 441.80999755859375px;"
            id="elgu8kqmr0uq" class="animable"></path>
        <path d="M400.82,456.62a14.75,14.75,0,0,1,0-5.72,14.75,14.75,0,0,1,0,5.72Z"
            style="fill: rgb(255, 255, 255); transform-origin: 400.8200340270996px 453.75999450683594px;"
            id="elfuyz0erz81k" class="animable"></path>
        <path
            d="M425.52,424.4c0,.15-5,.28-11.12.28s-11.12-.13-11.12-.28a108.79,108.79,0,0,1,11.12-.28A108.79,108.79,0,0,1,425.52,424.4Z"
            style="fill: rgb(255, 255, 255); transform-origin: 414.3999938964844px 424.38165923953056px;"
            id="el3vixiaehrwq" class="animable"></path>
        <path
            d="M432.72,412.62a110.55,110.55,0,0,1-11.21.28,110.27,110.27,0,0,1-11.2-.28c0-.15,5-.28,11.2-.28S432.72,412.47,432.72,412.62Z"
            style="fill: rgb(255, 255, 255); transform-origin: 421.51499938964844px 412.63838815689087px;"
            id="elfbwe9tknp4u" class="animable"></path>
        <path d="M443.51,412.79a24.32,24.32,0,0,1-7.36,0,24.32,24.32,0,0,1,7.36,0Z"
            style="fill: rgb(255, 255, 255); transform-origin: 439.8300018310547px 412.7899646759033px;"
            id="elud425t8nvde" class="animable"></path>
    </g>
    <g id="freepik--Character--inject-37" style="transform-origin: 153.7885856628418px 276.17736053466797px;"
        class="animable">
        <polygon
            points="100.82 158.7 129.24 173.31 170.53 146.38 184.39 163.3 140.42 198.06 109.44 198.07 90.14 170.7 100.82 158.7"
            style="fill: rgb(69, 90, 100); transform-origin: 137.26499938964844px 172.22500610351562px;"
            id="elt15m8adumms" class="animable"></polygon>
        <path d="M109.43,198.1h0L90.1,170.7l0,0,10.69-12h0l28.41,14.61,41.3-26.93,0,0,13.87,16.93,0,0-44,34.77h-31Z"
            style="fill: rgb(69, 90, 100); transform-origin: 137.2349967956543px 172.24000549316406px;"
            id="el3z5q746x5vu" class="animable"></path>
        <g id="elqlj11tnyme">
            <g style="opacity: 0.30000000000000004; transform-origin: 137.26499938964844px 171.81000518798828px;"
                class="animable">
                <polygon
                    points="100.82 158.7 129.24 173.31 171.18 145.55 184.39 163.3 140.42 198.06 109.44 198.07 90.14 170.7 100.82 158.7"
                    id="elfuxh7ddxeg" style="transform-origin: 137.26499938964844px 171.81000518798828px;"
                    class="animable"></polygon>
            </g>
        </g>
        <path d="M252.13,159.31a54,54,0,1,1-29.56-70.26A53.92,53.92,0,0,1,252.13,159.31Z"
            style="fill: rgb(255, 114, 94); transform-origin: 202.10722732543945px 139.01436233520508px;"
            id="elow0rmizxum" class="animable"></path>
        <path d="M240.24,154.45a41.12,41.12,0,1,1-22.52-53.54A41.08,41.08,0,0,1,240.24,154.45Z"
            style="fill: rgb(255, 114, 94); transform-origin: 202.15242385864258px 138.96677017211914px;"
            id="el2u7rhi0h7yk" class="animable"></path>
        <path
            d="M240.24,154.45a5,5,0,0,1,.18-.65L241,152c.13-.41.29-.87.45-1.36s.26-1.08.4-1.69a29.23,29.23,0,0,0,.8-4.24,39,39,0,0,0-.13-11.79,40.83,40.83,0,0,0-38.74-34.56,43.41,43.41,0,0,0-5.8.14c-1,.1-1.94.3-2.91.44a21.11,21.11,0,0,0-2.92.63A37.73,37.73,0,0,0,181,104.24a39.44,39.44,0,0,0-9.62,8.15,40.08,40.08,0,0,0-9.72,23.74,39.36,39.36,0,0,0,1.15,12.57,46.79,46.79,0,0,0,1.91,5.87,47.82,47.82,0,0,0,2.79,5.37,44.31,44.31,0,0,0,3.41,4.85,42.92,42.92,0,0,0,4,4.16,40.93,40.93,0,0,0,51.87,2.51,39.24,39.24,0,0,0,8.35-8.32,29.43,29.43,0,0,0,2.4-3.58c.33-.54.65-1,.9-1.49l.63-1.29.87-1.75a4.09,4.09,0,0,1,.32-.58,5.54,5.54,0,0,1-.24.62c-.2.44-.46,1-.79,1.79l-.6,1.32c-.24.47-.55,1-.87,1.51a28.52,28.52,0,0,1-2.35,3.65,39,39,0,0,1-8.33,8.5,41.39,41.39,0,0,1-33.19,7.56,41.69,41.69,0,0,1-19.5-9.86,38.07,38.07,0,0,1-7.61-9.17,47.39,47.39,0,0,1-2.86-5.48,48.21,48.21,0,0,1-2-6,40.07,40.07,0,0,1-1.19-12.83,41,41,0,0,1,9.92-24.24,40.49,40.49,0,0,1,9.84-8.31,46.37,46.37,0,0,1,5.6-2.89A45.64,45.64,0,0,1,192,98.72a22.13,22.13,0,0,1,3-.63c1-.15,2-.34,3-.44a43.36,43.36,0,0,1,5.91-.14,41.66,41.66,0,0,1,20.81,6.64A41.35,41.35,0,0,1,243,132.8a38.87,38.87,0,0,1,0,11.9,28.32,28.32,0,0,1-.88,4.26c-.16.61-.28,1.18-.44,1.69l-.5,1.35-.69,1.84A4.88,4.88,0,0,1,240.24,154.45Z"
            style="fill: rgb(38, 50, 56); transform-origin: 202.04638290405273px 138.84543228149414px;"
            id="elnktp593ulh" class="animable"></path>
        <g id="el7djqh98123l">
            <g style="opacity: 0.30000000000000004; transform-origin: 203.41467666625977px 126.35849380493164px;"
                class="animable">
                <path
                    d="M239.78,154.73c-.23-.09.29-1.83.88-5a43.86,43.86,0,0,0,.42-13.44,41.81,41.81,0,0,0-2.16-9,40.55,40.55,0,0,0-4.85-9.32,39.39,39.39,0,0,0-7.9-8.41,39.26,39.26,0,0,0-5.06-3.41,39.25,39.25,0,0,0-11.74-4.38,39.59,39.59,0,0,0-6.06-.73,40,40,0,0,0-11.49,1.19,40.82,40.82,0,0,0-9.77,3.87,42.14,42.14,0,0,0-7.5,5.36A44,44,0,0,0,166.06,122c-1.62,2.77-2.37,4.43-2.6,4.34s.19-1.87,1.53-4.9a38.22,38.22,0,0,1,8-11.5A41.33,41.33,0,0,1,191.1,99.48a38.59,38.59,0,0,1,6-1.18,39.37,39.37,0,0,1,6.36-.29,41,41,0,0,1,6.55.75,44.53,44.53,0,0,1,6.53,1.84,44.06,44.06,0,0,1,6.13,2.88,41.06,41.06,0,0,1,5.44,3.72,39.18,39.18,0,0,1,4.62,4.37,39.91,39.91,0,0,1,3.74,4.81,41.06,41.06,0,0,1,6.83,19.68,38.35,38.35,0,0,1-1.44,14C240.87,153.19,240,154.79,239.78,154.73Z"
                    id="el9d9meoirg0r" style="transform-origin: 203.41467666625977px 126.35849380493164px;"
                    class="animable"></path>
            </g>
        </g>
        <g id="elfmud3n3n1jw">
            <g style="opacity: 0.30000000000000004; transform-origin: 201.4000015258789px 140.83999633789062px;"
                class="animable">
                <path
                    d="M197.2,163.34,194.58,170l-6-2.34,2.55-6.49c-5.76-2.67-10.69-6.73-13-10.58l6.12-6a25.83,25.83,0,0,0,9.9,8.76l3.9-9.94c-6-4.2-12.5-9.3-9.16-17.81,2.48-6.31,9.19-9.93,19-7.31l2.6-6.61,5.95,2.33L214,120.53a29,29,0,0,1,10.67,8.38l-5.85,6.15a26.34,26.34,0,0,0-7.9-6.67l-4,10.12c6,4.14,12.4,9.2,9.11,17.59C213.62,162.29,207,165.88,197.2,163.34Zm4.37-28.65,3.32-8.46c-3.44-.52-5.37.72-6.14,2.68S199.28,132.83,201.57,134.69Zm4.61,18.37c.82-2.09-.46-3.9-2.67-5.8l-3.23,8.22C203.52,156,205.43,155,206.18,153.06Z"
                    id="elymhbdvbpql" style="transform-origin: 201.4000015258789px 140.83999633789062px;"
                    class="animable"></path>
            </g>
        </g>
        <path
            d="M64.46,110.8,68.91,155c.76,7.52,3.41,18.4,15.23,16.66h0c10.15-2.28,11.77-12.32,11.06-19.33-.34-3.33-.62-6.1-.63-6.44,0,0,11.14-2.2,10.83-13.41-.15-5.42-1.37-16.56-2.59-26.62A20.89,20.89,0,0,0,81.23,87.48l-1.08,0C68.51,88.67,63,99.2,64.46,110.8Z"
            style="fill: rgb(255, 190, 157); transform-origin: 84.81800842285156px 129.6542091369629px;"
            id="elkrcbgvv7ifh" class="animable"></path>
        <path d="M94.57,145.87a27.19,27.19,0,0,1-14.77-3.73s3.89,8,15,6.58Z"
            style="fill: rgb(235, 153, 110); transform-origin: 87.30000305175781px 145.51445531845093px;"
            id="elrji28ep4mi" class="animable"></path>
        <path
            d="M84.34,112.54c-.19.25-1.59-.63-3.46-.47s-3.15,1.23-3.38,1,.08-.53.64-1a4.61,4.61,0,0,1,2.67-1.1,4.46,4.46,0,0,1,2.78.67C84.21,112,84.44,112.43,84.34,112.54Z"
            style="fill: rgb(38, 50, 56); transform-origin: 80.892986536026px 112.02712321281433px;" id="elffransikxd4"
            class="animable"></path>
        <path
            d="M84.72,117.17a1.51,1.51,0,0,1-1.39,1.59,1.45,1.45,0,0,1-1.62-1.3,1.52,1.52,0,0,1,1.4-1.59A1.44,1.44,0,0,1,84.72,117.17Z"
            style="fill: rgb(38, 50, 56); transform-origin: 83.2152715921402px 117.3150110244751px;" id="elaunvbq4uell"
            class="animable"></path>
        <path
            d="M90.47,125a11.69,11.69,0,0,1,2.78-.62c.44-.06.85-.16.91-.47a2.2,2.2,0,0,0-.35-1.29c-.45-1-.93-2.14-1.43-3.3-2-4.69-3.46-8.56-3.27-8.64s2,3.66,4,8.36l1.38,3.32a2.58,2.58,0,0,1,.3,1.72,1.13,1.13,0,0,1-.7.67,2.82,2.82,0,0,1-.74.13A10.85,10.85,0,0,1,90.47,125Z"
            style="fill: rgb(38, 50, 56); transform-origin: 91.96084427833557px 117.86209964752197px;" id="elyrd90p796u"
            class="animable"></path>
        <path
            d="M82.76,105.64c-.14.43-1.66.29-3.44.58s-3.19.86-3.44.48c-.12-.18.12-.59.68-1a5.82,5.82,0,0,1,2.53-1,5.73,5.73,0,0,1,2.71.22C82.47,105.11,82.81,105.43,82.76,105.64Z"
            style="fill: rgb(38, 50, 56); transform-origin: 79.30731582641602px 105.7273120880127px;" id="elbzga6c079j9"
            class="animable"></path>
        <path
            d="M100.82,107.08c-.16.36-1.65.15-3.42.3s-3.2.53-3.42.2c-.1-.16.15-.49.73-.83a6.7,6.7,0,0,1,5.22-.38C100.57,106.62,100.89,106.91,100.82,107.08Z"
            style="fill: rgb(38, 50, 56); transform-origin: 97.39399766921997px 106.8612129688263px;" id="elfa68xu9h4mr"
            class="animable"></path>
        <path d="M65.7,119.06c-.19-.08-7.79-2-7.24,5.68s8.12,5.52,8.12,5.3S65.7,119.06,65.7,119.06Z"
            style="fill: rgb(255, 190, 157); transform-origin: 62.50576829910278px 124.63735866546631px;"
            id="elqikn8x8mu1j" class="animable"></path>
        <path
            d="M64,127.31s-.12.11-.34.23a1.38,1.38,0,0,1-1,.09c-.83-.24-1.6-1.48-1.74-2.85a4.38,4.38,0,0,1,.24-1.94,1.54,1.54,0,0,1,.93-1.09.67.67,0,0,1,.81.31c.12.2.08.36.12.37s.16-.14.07-.45a.82.82,0,0,0-.33-.46,1,1,0,0,0-.75-.14,1.87,1.87,0,0,0-1.31,1.28,4.54,4.54,0,0,0-.31,2.17c.16,1.54,1.06,2.93,2.19,3.17a1.46,1.46,0,0,0,1.2-.29C64,127.5,64.06,127.33,64,127.31Z"
            style="fill: rgb(235, 153, 110); transform-origin: 62.19417345523834px 124.69381022453308px;"
            id="elkugq7swni9" class="animable"></path>
        <path
            d="M89.27,130.44c.06-.2-1.48-.48-2.69-1.76a8.81,8.81,0,0,1-1.28-1.87c-.28-.53-.49-.86-.57-.82s0,.4.18,1a5.66,5.66,0,0,0,1.23,2.12,4.59,4.59,0,0,0,2.11,1.27C88.86,130.54,89.26,130.51,89.27,130.44Z"
            style="fill: rgb(38, 50, 56); transform-origin: 86.98533844947815px 128.24167442321777px;" id="elpo6q7yw6gf"
            class="animable"></path>
        <path
            d="M101.39,111.32c-.2.25-1.6-.64-3.47-.47s-3.15,1.23-3.37,1,.07-.53.63-1a4.78,4.78,0,0,1,2.68-1.1,4.55,4.55,0,0,1,2.78.67C101.25,110.81,101.48,111.21,101.39,111.32Z"
            style="fill: rgb(38, 50, 56); transform-origin: 97.9425117969513px 110.80838596820831px;" id="eloe55cjv97an"
            class="animable"></path>
        <path
            d="M100.41,116.23a1.52,1.52,0,0,1-1.4,1.59,1.45,1.45,0,0,1-1.61-1.31,1.51,1.51,0,0,1,1.39-1.58A1.44,1.44,0,0,1,100.41,116.23Z"
            style="fill: rgb(38, 50, 56); transform-origin: 98.90499997138977px 116.37374186515808px;" id="elc4e9077uj8"
            class="animable"></path>
        <path
            d="M108.89,90.21a6,6,0,0,0-7.77-1.52,8.28,8.28,0,0,0-15-5.5,3.41,3.41,0,0,0-1.9-2.07,6.62,6.62,0,0,0-2.83-.5,13.14,13.14,0,0,0-11.35,6.56A14.32,14.32,0,0,0,58.51,93c-3.13,4.37-2.77,13.63,2.05,21.13L62.05,119a4.5,4.5,0,0,1,3.2.41c1.13.81,1.79,2.5,3.43,1.64.83-.43,1.42-2.35,1.61-3.27a43.67,43.67,0,0,0-.21-18.56,14,14,0,0,1,4-3.6l-.11.14c3-1.43,6.37-2.89,9.48-1.77,2.41.87,4,3.09,5.95,4.79a17.53,17.53,0,0,0,13.08,4.33c.52,3.11.76,7.56,1.27,10.67l2.07-5.31v0a12,12,0,0,0,.44-1.17l.05-.12v0h0a26.4,26.4,0,0,0,1.43-2.23,6.62,6.62,0,0,0,.31-6.84A6,6,0,0,0,108.89,90.21Z"
            style="fill: rgb(38, 50, 56); transform-origin: 83.24170303344727px 100.49617004394531px;"
            id="eld5l6ajxgy7j" class="animable"></path>
        <polygon points="106.97 105.29 106.96 105.28 106.96 105.28 106.97 105.29"
            style="fill: rgb(38, 50, 56); transform-origin: 106.96500015258789px 105.28499984741211px;"
            id="elgreda8viz4" class="animable"></polygon>
        <path
            d="M104.35,90.84s0,0,.07.16a2.1,2.1,0,0,1,.13.48,3.31,3.31,0,0,1-.24,1.84,3.37,3.37,0,0,1-.74,1.08,3.07,3.07,0,0,1-1.32.75,3.48,3.48,0,0,1-3.31-.83l.17-.19a2.13,2.13,0,0,1,.7,1.43,2.77,2.77,0,0,1-.63,2,3.06,3.06,0,0,1-1.72,1,4.85,4.85,0,0,1-3.22-.5,10.42,10.42,0,0,1-1.84-1.24,4.59,4.59,0,0,1-.6-.54s.24.16.66.46a11.56,11.56,0,0,0,1.85,1.15,4.7,4.7,0,0,0,3.1.44,2.91,2.91,0,0,0,1.58-.9,2.52,2.52,0,0,0,.57-1.83,1.89,1.89,0,0,0-.62-1.27l.18-.18a3.23,3.23,0,0,0,3.07.8,3,3,0,0,0,2-1.69,3.42,3.42,0,0,0,.3-1.75C104.42,91.07,104.33,90.85,104.35,90.84Z"
            style="fill: rgb(69, 90, 100); transform-origin: 98.1946907043457px 94.74298048019409px;" id="el320wnh6e1bw"
            class="animable"></path>
        <path
            d="M93.87,83.57a.77.77,0,0,1,.17.06,2.59,2.59,0,0,1,.46.24,3.65,3.65,0,0,1,1.32,1.36A3,3,0,0,1,95.87,88a2.24,2.24,0,0,1-1.28,1.11A2.32,2.32,0,0,1,92.77,89a2.13,2.13,0,0,1-.47-.37l.21-.15a2.16,2.16,0,0,1,.13,1.72,2.31,2.31,0,0,1-1,1.26,3.12,3.12,0,0,1-2.59.29,4.15,4.15,0,0,1-1.52-.9,2.13,2.13,0,0,1-.43-.48s.17.16.49.41a4.34,4.34,0,0,0,1.51.8,3,3,0,0,0,2.42-.31,2.16,2.16,0,0,0,.87-1.15,1.9,1.9,0,0,0-.12-1.51l-.51-.89.71.74a1.88,1.88,0,0,0,.41.32,2.1,2.1,0,0,0,1.61.13,2.05,2.05,0,0,0,1.15-1,2.79,2.79,0,0,0,0-2.58A3.86,3.86,0,0,0,94.45,84C94.09,83.69,93.86,83.59,93.87,83.57Z"
            style="fill: rgb(69, 90, 100); transform-origin: 91.6421947479248px 87.73888397216797px;" id="elxzuep79kvt"
            class="animable"></path>
        <path d="M118.68,433.48l-.8,38,50,1.17c-.18-4.52-25.79-14.18-25.79-14.18l1.57-24.31Z"
            style="fill: rgb(69, 90, 100); transform-origin: 142.88000106811523px 453.0650177001953px;"
            id="elhf3dwe1thje" class="animable"></path>
        <g id="eluarai2r8jw">
            <g style="opacity: 0.6000000000000001; transform-origin: 127.10974144935608px 457.77519631385803px;"
                class="animable">
                <path
                    d="M126.67,456a1.93,1.93,0,0,0-1.47,2.16,2,2,0,0,0,2.26,1.4,2,2,0,0,0,1.55-2.3,2.08,2.08,0,0,0-2.53-1.21"
                    style="fill: rgb(255, 255, 255); transform-origin: 127.10974144935608px 457.77519631385803px;"
                    id="ellejhc2kjwdh" class="animable"></path>
            </g>
        </g>
        <g id="elre7hsblej7">
            <g style="opacity: 0.6000000000000001; transform-origin: 142.90817070007324px 470.12001037597656px;"
                class="animable">
                <path d="M117.88,471.45l.24-3.83L166,470.18s2.2,1,1.91,2.44Z"
                    style="fill: rgb(255, 255, 255); transform-origin: 142.90817070007324px 470.12001037597656px;"
                    id="elo7vwfnys1x" class="animable"></path>
            </g>
        </g>
        <path d="M142.89,458.22c0,.23-1.24.3-2.46,1s-1.89,1.66-2.11,1.57.18-1.42,1.67-2.26S142.94,458,142.89,458.22Z"
            style="fill: rgb(38, 50, 56); transform-origin: 140.57754683494568px 459.3867087364197px;" id="eldujkqhnk0z"
            class="animable"></path>
        <path d="M148.07,460.39c.05.22-1,.59-1.87,1.55s-1.12,2-1.36,2-.37-1.32.72-2.49S148.07,460.17,148.07,460.39Z"
            style="fill: rgb(38, 50, 56); transform-origin: 146.37333118915558px 462.1190732717514px;"
            id="eld0fhmncf9aj" class="animable"></path>
        <path
            d="M150.89,466.39c-.22,0-.53-1.12.13-2.37s1.82-1.72,1.91-1.53-.62.86-1.15,1.89S151.14,466.37,150.89,466.39Z"
            style="fill: rgb(38, 50, 56); transform-origin: 151.7797268629074px 464.419674038887px;" id="eljvtnj8d6i1r"
            class="animable"></path>
        <path d="M142.59,452.64c-.1.21-1.22-.14-2.6-.08s-2.47.44-2.59.24.94-1,2.56-1S142.72,452.46,142.59,452.64Z"
            style="fill: rgb(38, 50, 56); transform-origin: 139.99542570114136px 452.3288376927376px;"
            id="elma2no46vq6p" class="animable"></path>
        <path
            d="M141.55,447a5.11,5.11,0,0,1-2.5-.07,12.27,12.27,0,0,1-4-1.58,3.13,3.13,0,0,1-.74-.57,1,1,0,0,1-.08-1.23,1.37,1.37,0,0,1,1.08-.51,3.56,3.56,0,0,1,.94.15,9.61,9.61,0,0,1,1.54.54,8.5,8.5,0,0,1,2.27,1.49c1.14,1,1.51,1.91,1.42,1.95s-.65-.66-1.81-1.53a10.64,10.64,0,0,0-2.2-1.24A11.41,11.41,0,0,0,136,444c-.52-.14-1-.16-1.12.06s-.06.12,0,.27a2.44,2.44,0,0,0,.55.42,12.27,12.27,0,0,0,1.3.74,14.72,14.72,0,0,0,2.4.94A16.74,16.74,0,0,1,141.55,447Z"
            style="fill: rgb(38, 50, 56); transform-origin: 137.80292010307312px 445.1057846546173px;"
            id="elmi2a1ujuqc8" class="animable"></path>
        <path
            d="M141.22,447.33a3.68,3.68,0,0,1-.6-2.3,7.49,7.49,0,0,1,.41-2.58,7.65,7.65,0,0,1,.68-1.42,2,2,0,0,1,1.63-1.16,1.19,1.19,0,0,1,1,.69,3.13,3.13,0,0,1,.23.87,5,5,0,0,1,0,1.59,5.3,5.3,0,0,1-1.13,2.42c-1,1.2-2,1.45-2.06,1.37s.79-.54,1.57-1.7a5.34,5.34,0,0,0,.85-2.2,4.84,4.84,0,0,0,0-1.37c-.07-.5-.26-.91-.46-.87s-.68.36-.89.76a7.33,7.33,0,0,0-.66,1.27,8.5,8.5,0,0,0-.55,2.35C141.12,446.43,141.36,447.3,141.22,447.33Z"
            style="fill: rgb(38, 50, 56); transform-origin: 142.62181067466736px 443.6000061035156px;"
            id="el8m661fbt4jg" class="animable"></path>
        <path d="M71.88,417.87,51.45,444.74l35.3,27C89,468.38,75.64,448,75.64,448l13.83-16.64Z"
            style="fill: rgb(69, 90, 100); transform-origin: 70.46000099182129px 444.80499267578125px;"
            id="elkbv90f4fgvs" class="animable"></path>
        <g id="ellf2o5nivee">
            <g style="opacity: 0.6000000000000001; transform-origin: 65.21851003170013px 439.7386817932129px;"
                class="animable">
                <path
                    d="M65.83,438.25a1.71,1.71,0,0,0-2.19.79,1.74,1.74,0,0,0,.9,2.18,1.8,1.8,0,0,0,2.31-.84,1.85,1.85,0,0,0-1.18-2.19"
                    style="fill: rgb(255, 255, 255); transform-origin: 65.21851003170013px 439.7386817932129px;"
                    id="el6q2wq7hlll" class="animable"></path>
            </g>
        </g>
        <g id="elk2fnwabl2xs">
            <g style="opacity: 0.6000000000000001; transform-origin: 69.28669548034668px 456.9149932861328px;"
                class="animable">
                <path d="M51.45,444.74l2.17-2.63,33,26.85s1.07,1.85.09,2.76Z"
                    style="fill: rgb(255, 255, 255); transform-origin: 69.28669548034668px 456.9149932861328px;"
                    id="elo4nnprcrtek" class="animable"></path>
            </g>
        </g>
        <path d="M76.34,448.3c-.13.16-1-.42-2.3-.55s-2.23.21-2.34,0,.87-.93,2.39-.75S76.49,448.18,76.34,448.3Z"
            style="fill: rgb(38, 50, 56); transform-origin: 74.0240638256073px 447.64954620599747px;" id="ellmr4e3g9do"
            class="animable"></path>
        <path d="M78.93,452.58c-.08.18-1-.11-2.15.13s-1.85.84-2,.7.43-1.14,1.82-1.41S79.05,452.42,78.93,452.58Z"
            style="fill: rgb(38, 50, 56); transform-origin: 76.84811568260193px 452.6844594478607px;" id="el21sk176xtm4"
            class="animable"></path>
        <path d="M77.82,458.36c-.18-.08.2-1.08,1.33-1.63s2.21-.29,2.17-.1-.89.29-1.81.75S78,458.48,77.82,458.36Z"
            style="fill: rgb(38, 50, 56); transform-origin: 79.54922294616699px 457.38702684640884px;"
            id="elfnhkk3akqbr" class="animable"></path>
        <path d="M79,444.14c-.18.09-.8-.73-1.82-1.42s-2-1-2-1.18,1.19-.23,2.39.59S79.23,444.08,79,444.14Z"
            style="fill: rgb(38, 50, 56); transform-origin: 77.11863589286804px 442.7886689901352px;" id="eluf6m5anzte9"
            class="animable"></path>
        <path
            d="M81.24,439.55c0,.07-.81-.35-1.76-1.36A10.84,10.84,0,0,1,78,436.24a11.67,11.67,0,0,1-.62-1.28,2.7,2.7,0,0,1-.24-.8.87.87,0,0,1,.59-.93,1.21,1.21,0,0,1,1,.21,3.06,3.06,0,0,1,.6.59,7.92,7.92,0,0,1,.82,1.19,7.82,7.82,0,0,1,.86,2.26,3.53,3.53,0,0,1,0,2.15c-.12,0-.13-.82-.51-2.05a9.21,9.21,0,0,0-.93-2,9.48,9.48,0,0,0-.79-1.07c-.3-.38-.62-.63-.84-.54s-.1.05-.1.21a2.47,2.47,0,0,0,.17.59,12.39,12.39,0,0,0,1.78,3.14C80.68,438.91,81.31,439.46,81.24,439.55Z"
            style="fill: rgb(38, 50, 56); transform-origin: 79.1894965171814px 436.41421270370483px;" id="elicze01rv8bi"
            class="animable"></path>
        <path
            d="M80.84,439.61c-.08,0,0-.87.77-2A6.52,6.52,0,0,1,83.25,436a7.2,7.2,0,0,1,1.23-.67,1.86,1.86,0,0,1,1.78,0,1,1,0,0,1,.38,1,2.61,2.61,0,0,1-.29.75,4.57,4.57,0,0,1-2.94,2.27,2.94,2.94,0,0,1-2.2-.08,18.16,18.16,0,0,0,2-.41A4.65,4.65,0,0,0,85,437.77a4,4,0,0,0,.71-1c.21-.39.29-.79.13-.86a1.26,1.26,0,0,0-1,.08,6.74,6.74,0,0,0-1.14.57A7.17,7.17,0,0,0,82,438C81.23,438.91,81,439.66,80.84,439.61Z"
            style="fill: rgb(38, 50, 56); transform-origin: 83.73778629302979px 437.3577938079834px;" id="el3d9xmscnk6s"
            class="animable"></path>
        <path
            d="M77.83,267.83l6.07,19.76A32.17,32.17,0,0,0,92,301c3.92,3.87,8.53,8.46,9.28,9.37l18.44,59.84L115.46,450l31.78,2.16s12.5-81.48,10.48-94.09-14.84-96.7-14.84-96.7l-3.37-5.85Z"
            style="fill: rgb(38, 50, 56); transform-origin: 117.88544082641602px 353.8399963378906px;" id="elw4tt7fzuur"
            class="animable"></path>
        <polygon points="104.3 312.53 101.08 371.32 58.81 428.77 85.31 446.84 142.32 380.27 142.88 303.26 104.3 312.53"
            style="fill: rgb(38, 50, 56); transform-origin: 100.84500503540039px 375.0500030517578px;" id="elof28zbro6e"
            class="animable"></polygon>
        <path
            d="M101.31,310.39s0,.09.12.27.17.49.29.83c.27.76.63,1.84,1.1,3.2,1,2.84,2.3,6.9,4,11.94L120.05,367l0,.05v.05c-.17,3.44-.36,7-.55,10.7-1,19.39-2,36.94-2.67,49.68-.37,6.33-.66,11.46-.87,15.06-.12,1.74-.21,3.11-.27,4.09,0,.44-.06.79-.08,1.06a2.52,2.52,0,0,1-.05.36,1.23,1.23,0,0,1,0-.36c0-.27,0-.63,0-1.07,0-1,.09-2.35.16-4.1.17-3.59.4-8.73.69-15.06.64-12.75,1.53-30.3,2.5-49.69.19-3.67.38-7.26.56-10.7l0,.11c-5.2-16.07-9.78-30.25-13.07-40.45-1.61-5.06-2.91-9.13-3.82-12-.42-1.38-.76-2.47-1-3.24l-.24-.84A1,1,0,0,1,101.31,310.39Z"
            style="fill: rgb(69, 90, 100); transform-origin: 110.67993259429932px 379.21998596191406px;"
            id="el9mp8x3ffmpv" class="animable"></path>
        <path
            d="M67.65,150.65S57.21,167,59.23,180.56C60.25,187.43,78,257,78,257l-.2,23.92,68.08-14.06-6.85-24.26-20.22-71.56L95,151Z"
            style="fill: rgb(69, 90, 100); transform-origin: 102.42529678344727px 215.78500366210938px;"
            id="el8nkop72ax9o" class="animable"></path>
        <g id="elw5pplu4vncl">
            <g style="opacity: 0.30000000000000004; transform-origin: 102.41500091552734px 197.48999786376953px;"
                class="animable">
                <path d="M75.19,185.73s33,23.53,44.59,23.24l9.86.28-1.52-5.35Z" id="el4ngzmld6d5h"
                    style="transform-origin: 102.41500091552734px 197.48999786376953px;" class="animable"></path>
            </g>
        </g>
        <path
            d="M82.1,189.31A14,14,0,0,1,79.54,191a45.26,45.26,0,0,1-13.88,5.08,13.12,13.12,0,0,1-3,.36,26.23,26.23,0,0,1,3-.72,64,64,0,0,0,7-2.1,62.27,62.27,0,0,0,6.73-3A25.92,25.92,0,0,1,82.1,189.31Z"
            style="fill: rgb(38, 50, 56); transform-origin: 72.38000297546387px 192.875px;" id="el33g57gtm1i8"
            class="animable"></path>
        <path
            d="M131.26,217.5c0,.14-13.12,3.63-29.38,7.79s-29.49,7.42-29.52,7.28,13.12-3.62,29.39-7.78S131.23,217.37,131.26,217.5Z"
            style="fill: rgb(38, 50, 56); transform-origin: 101.80996894836426px 225.03529357910156px;"
            id="elj2yf4equ6g" class="animable"></path>
        <path
            d="M140.51,249.73a3.64,3.64,0,0,1-.63.15l-1.82.34c-1.57.31-3.85.76-6.65,1.39-5.61,1.24-13.3,3.21-21.78,5.44s-16.16,4.28-21.75,5.62c-2.79.68-5.06,1.19-6.64,1.52l-1.81.35a4.83,4.83,0,0,1-.65.09,2.48,2.48,0,0,1,.62-.19l1.8-.45,6.59-1.68,21.71-5.76c8.48-2.23,16.19-4.15,21.83-5.3,2.81-.58,5.11-1,6.7-1.23l1.83-.24A2.9,2.9,0,0,1,140.51,249.73Z"
            style="fill: rgb(38, 50, 56); transform-origin: 109.6449966430664px 257.1790361404419px;" id="elham81sqfimt"
            class="animable"></path>
        <path
            d="M190.84,159.85a13.62,13.62,0,0,1,2.07-5.57c1.85-2.93,6.83-6.27,6.91-8.56s2.66-1.31,3,1.43c.19,1.75-1.91,7.1-1.91,7.1s4.29-.2,6.49-2.54,10.67-7.88,12.05-6.88c1.57,1.13-.72,2.36-1.58,3.27-.66.69-5.92,5.61-5.92,5.61s12.18-4.12,13.9-4c1.88.13.6,2.14-.16,2.4-.49.17,1.52,1,.44,2.83-.73,1.25-5.44,3.88-6.82,4.31l-2.85.91,9-1.71s1.92.92,0,2.27c-.84.6-26,12.32-28,13.06-3.46,1.27-8.47,2.9-8.47,2.9l-4.48-14.63Z"
            style="fill: rgb(255, 190, 157); transform-origin: 205.6681308746338px 160.56147575378418px;"
            id="elkndlp7vyt7s" class="animable"></path>
        <path
            d="M225.64,152.11a41.9,41.9,0,0,1-6.95,3.95c-3.95,2-7.33,3.2-7.39,3a11.61,11.61,0,0,1,2.07-1.09l5.06-2.46,5.06-2.5A10,10,0,0,1,225.64,152.11Z"
            style="fill: rgb(235, 153, 110); transform-origin: 218.47000885009766px 155.59582495689392px;"
            id="elcgt8nl12mxo" class="animable"></path>
        <path
            d="M68,181.64s44.51,26.91,65.24,21.56S195.68,179,195.68,179L186,156.47l-55.52,20s-39.75-18.58-48.28-21.19C69.69,151.43,52.65,168,68,181.64Z"
            style="fill: rgb(69, 90, 100); transform-origin: 128.796630859375px 179.30899047851562px;"
            id="el807qg1aum9e" class="animable"></path>
        <path
            d="M97.93,161.64l.59.2c.38.15,1,.35,1.71.66,1.5.59,3.7,1.53,6.53,2.76,5.64,2.49,13.78,6.22,23.85,11h-.15l55.49-20,.25-.09.1.24L196,178.88l.11.26-.26.12-8.08,3.56c-8.11,3.54-16.09,6.87-23.84,10s-15.29,5.93-22.6,8.3c-1.83.56-3.62,1.17-5.44,1.65l-2.69.74a23.29,23.29,0,0,1-2.73.48,38.73,38.73,0,0,1-10.59-.46,98.26,98.26,0,0,1-18.24-5.24,213.28,213.28,0,0,1-24.9-11.58c-2.85-1.55-5-2.8-6.51-3.66l-1.66-1c-.38-.23-.56-.36-.56-.36s.21.1.59.31l1.69,1c1.49.84,3.69,2.06,6.56,3.57a226,226,0,0,0,24.94,11.4A99.27,99.27,0,0,0,119.91,203a38.63,38.63,0,0,0,10.45.42A24.89,24.89,0,0,0,133,203l2.67-.74c1.8-.48,3.59-1.1,5.42-1.66,7.28-2.37,14.8-5.24,22.55-8.32s15.71-6.43,23.82-10l8.07-3.56-.14.38-9.63-22.53.35.16-55.55,19.89-.08,0-.07,0c-10-4.83-18.16-8.62-23.77-11.17-2.81-1.26-5-2.23-6.48-2.86l-1.69-.7C98.12,161.74,97.93,161.64,97.93,161.64Z"
            style="fill: rgb(38, 50, 56); transform-origin: 132.06000518798828px 180.1652431488037px;" id="elp0qzpjsiql"
            class="animable"></path>
        <path
            d="M90,159.17a7.6,7.6,0,0,1-1.26-.52c-.8-.35-2-.87-3.41-1.41a24.32,24.32,0,0,0-5.26-1.36,14.64,14.64,0,0,0-6.53.54,10.39,10.39,0,0,0-5.35,3.81h0a18.75,18.75,0,0,0-3.8,6.34c-.6,1.73-.76,2.8-.83,2.79a3.37,3.37,0,0,1,.07-.77,14.38,14.38,0,0,1,.49-2.11,17.65,17.65,0,0,1,3.72-6.57l0,0a10.65,10.65,0,0,1,5.57-4,14.81,14.81,0,0,1,6.76-.52,22.83,22.83,0,0,1,5.33,1.5,34,34,0,0,1,3.37,1.57A6.47,6.47,0,0,1,90,159.17Z"
            style="fill: rgb(38, 50, 56); transform-origin: 76.77949714660645px 162.2871675491333px;" id="eltb5sy542ln"
            class="animable"></path>
        <path
            d="M108.83,167.25a4.47,4.47,0,0,1-.36,1.16c-.26.73-.67,1.78-1.19,3.07-1,2.58-2.55,6.11-4.36,10s-3.55,7.26-4.87,9.71c-.66,1.23-1.21,2.21-1.61,2.88a5.23,5.23,0,0,1-.65,1,5.19,5.19,0,0,1,.47-1.11c.4-.79.88-1.78,1.46-2.95,1.24-2.48,2.93-5.93,4.73-9.76s3.37-7.34,4.49-9.87l1.34-3A6.35,6.35,0,0,1,108.83,167.25Z"
            style="fill: rgb(38, 50, 56); transform-origin: 102.31000137329102px 181.1600112915039px;"
            id="elf0kq4zbi9zu" class="animable"></path>
        <path
            d="M134.16,202.29c-.15,0-1.07-5.56-2.06-12.45s-1.68-12.5-1.54-12.53,1.06,5.56,2.06,12.45S134.3,202.27,134.16,202.29Z"
            style="fill: rgb(38, 50, 56); transform-origin: 132.3601187467575px 189.79993343353271px;"
            id="elj9qj2936lvg" class="animable"></path>
        <path
            d="M168.91,190.47a3.35,3.35,0,0,1-.54-.87c-.32-.58-.76-1.42-1.29-2.47-1.08-2.09-2.52-5-4.09-8.21s-3-6.15-4-8.29c-.49-1.06-.88-1.93-1.14-2.53a4.17,4.17,0,0,1-.36-1,4,4,0,0,1,.54.87c.32.58.76,1.42,1.29,2.47,1.07,2.09,2.52,5,4.09,8.22s3,6.15,3.95,8.29c.49,1.06.88,1.93,1.14,2.53A4.42,4.42,0,0,1,168.91,190.47Z"
            style="fill: rgb(38, 50, 56); transform-origin: 163.20000457763672px 178.7850112915039px;" id="elxi66lsjuyt"
            class="animable"></path>
    </g>
    <g id="freepik--piggy-bank--inject-37" style="transform-origin: 275.3814697265625px 332.61500549316406px;"
        class="animable">
        <polygon
            points="167.89 413.01 194.89 472.62 207.92 472.62 209.78 468.07 212.1 472.62 220.65 472.62 219.65 437.83 219.23 417.27 167.89 413.01"
            style="fill: rgb(255, 114, 94); transform-origin: 194.2699966430664px 442.81500244140625px;"
            id="elf4vvoajtvzi" class="animable"></polygon>
        <g id="elsvtbhvjg3ma">
            <polygon
                points="167.89 413.01 194.89 472.62 207.92 472.62 209.78 468.07 212.1 472.62 220.65 472.62 219.65 437.83 219.23 417.27 167.89 413.01"
                style="opacity: 0.30000000000000004; transform-origin: 194.2699966430664px 442.81500244140625px;"
                class="animable"></polygon>
        </g>
        <polygon
            points="286.04 419.4 312.37 472.62 325.4 472.62 327.27 468.46 329.58 472.62 338.13 472.62 337.14 440.77 336.71 421.95 286.04 419.4"
            style="fill: rgb(255, 114, 94); transform-origin: 312.0850067138672px 446.00999450683594px;"
            id="elek0ri9ontd" class="animable"></polygon>
        <g id="elkmgx0cjjvlo">
            <polygon
                points="286.04 419.4 312.37 472.62 325.4 472.62 327.27 468.46 329.58 472.62 338.13 472.62 337.14 440.77 336.71 421.95 286.04 419.4"
                style="opacity: 0.30000000000000004; transform-origin: 312.0850067138672px 446.00999450683594px;"
                class="animable"></polygon>
        </g>
        <path
            d="M435.79,262.55l.25.08.7.31a11.55,11.55,0,0,1,2.44,1.63,13.73,13.73,0,0,1,4.74,9.49,12.2,12.2,0,0,1-1.83,7.21,14,14,0,0,1-6.5,5.55,11.51,11.51,0,0,1-9.36,0,6.93,6.93,0,0,1-3.48-3.68,5.39,5.39,0,0,1,.48-5.15,6.14,6.14,0,0,1,4.59-2.45,7.22,7.22,0,0,1,4.81,1.59,10.4,10.4,0,0,1,3.86,8.49,13.26,13.26,0,0,1-3,8,12.42,12.42,0,0,1-2.91,2.63,14.31,14.31,0,0,1-3.29,1.48,15.09,15.09,0,0,1-6.15.46,16.41,16.41,0,0,1-4.49-1.23,15.43,15.43,0,0,1-2.57-1.43l-.61-.46c-.13-.1-.2-.16-.19-.17a20.24,20.24,0,0,0,3.45,1.87,16.18,16.18,0,0,0,4.44,1.13,15,15,0,0,0,6-.52,13.77,13.77,0,0,0,3.18-1.47,11.81,11.81,0,0,0,2.79-2.56A12.84,12.84,0,0,0,436,285.6a9.87,9.87,0,0,0-3.69-8.07,6.67,6.67,0,0,0-4.47-1.48,5.66,5.66,0,0,0-4.2,2.23,4.92,4.92,0,0,0-.42,4.66,6.43,6.43,0,0,0,3.22,3.41,11.09,11.09,0,0,0,9,0,13.56,13.56,0,0,0,6.31-5.34,11.76,11.76,0,0,0,1.83-7,13.31,13.31,0,0,0-1.66-5.77,13.75,13.75,0,0,0-2.84-3.59A14.91,14.91,0,0,0,435.79,262.55Z"
            style="fill: rgb(255, 114, 94); transform-origin: 428.61099433898926px 280.4347496032715px;"
            id="eld4w95aria4a" class="animable"></path>
        <path
            d="M422.9,316.48c3.92,88.45-70.23,132.58-154.17,132.58s-152-57.47-152-128.36,68.05-128.36,152-128.36S419.76,245.66,422.9,316.48Z"
            style="fill: rgb(255, 114, 94); transform-origin: 269.88934326171875px 320.6999969482422px;"
            id="el7ceyp5fq9c9" class="animable"></path>
        <g id="elckx7x2gp9w">
            <path d="M258.14,224s10.08-3.2,19.51,7.46,22.55,28.82,22.55,28.82c-1.18,5.91-4.63,10.52-11.32,13.26Z"
                style="opacity: 0.30000000000000004; transform-origin: 279.1700134277344px 248.54483222961426px;"
                class="animable"></path>
        </g>
        <ellipse cx="168.8" cy="372.78" rx="52.04" ry="39.88"
            style="fill: rgb(255, 114, 94); transform-origin: 168.8px 372.78px;" id="el6essixjffxr" class="animable">
        </ellipse>
        <path d="M217.33,266.17s30.5-47.32,44.47-42.19,27.08,49.6,27.08,49.6"
            style="fill: rgb(255, 114, 94); transform-origin: 253.10498809814453px 248.58556938171387px;"
            id="elfdlopx4pd3a" class="animable"></path>
        <path d="M182.84,255.32l-1.42-12.81s-19.1-8-36.2-11.89-20.47,0-20.47,0l27.05,37.91Z"
            style="fill: rgb(255, 114, 94); transform-origin: 153.7949981689453px 248.71056747436523px;"
            id="eledrwrdv6z4l" class="animable"></path>
        <g id="elgip7sl3copg">
            <path d="M223.55,209.94l10.12,6s49-13,86.66,0l-13.81-11.76S260.87,194.38,223.55,209.94Z"
                style="opacity: 0.30000000000000004; transform-origin: 271.9400100708008px 208.53731298446655px;"
                class="animable"></path>
        </g>
        <g id="elmjnz2s40la8">
            <ellipse cx="168.8" cy="372.78" rx="52.04" ry="39.88"
                style="opacity: 0.30000000000000004; transform-origin: 168.8px 372.78px;" class="animable"></ellipse>
        </g>
        <ellipse cx="155.57" cy="372.78" rx="48.75" ry="39.88"
            style="fill: rgb(255, 114, 94); transform-origin: 155.57px 372.78px;" id="elok16j7bkbu" class="animable">
        </ellipse>
        <g id="elutrko4l9u9">
            <rect x="131.63" y="354.08" width="10.43" height="37.42" rx="3.34"
                style="opacity: 0.30000000000000004; transform-origin: 136.845px 372.78999999999996px;"
                class="animable"></rect>
        </g>
        <g id="elr9shkqqaix8">
            <rect x="159.64" y="354.08" width="10.43" height="37.42" rx="3.34"
                style="opacity: 0.30000000000000004; transform-origin: 164.855px 372.78999999999996px;"
                class="animable"></rect>
        </g>
        <g id="eld8kjertqfcr">
            <path
                d="M179.88,256.58c4.39-2.48,6.75-6.18,5.09-12.28,0,0-22.65-9.77-39.75-13.68s-20.47,0-20.47,0l27.05,37.91Z"
                style="opacity: 0.30000000000000004; transform-origin: 155.12656021118164px 248.7061061859131px;"
                class="animable"></path>
        </g>
        <path
            d="M181.42,257.62s-1.27-.87-3.41-2.3c-10.1-6.73-39.58-26-47-26.21-10.26-.29-10.27,8.55-10.26,15.4,0,4.85,4,47,4,47"
            style="fill: rgb(255, 114, 94); transform-origin: 151.08470916748047px 260.3065013885498px;"
            id="el4rlofzm2ovs" class="animable"></path>
        <path
            d="M288.88,273.58a1.21,1.21,0,0,1-.11-.29q-.12-.33-.3-.87l-1.12-3.35c-1-2.9-2.45-7.09-4.46-12.19a156.11,156.11,0,0,0-8-17.48,60.68,60.68,0,0,0-6.19-9.47,22.84,22.84,0,0,0-4.23-4.16,8.06,8.06,0,0,0-5.56-1.89,14.34,14.34,0,0,0-5.7,2,36.9,36.9,0,0,0-4.92,3.38,84.39,84.39,0,0,0-8.24,7.78,190.13,190.13,0,0,0-12.34,14.75c-3.33,4.36-5.89,8-7.65,10.49l-2,2.9-.52.75a1.31,1.31,0,0,1-.2.25l.15-.28.49-.78c.43-.68,1.08-1.68,1.93-2.95,1.71-2.55,4.23-6.21,7.52-10.6a183.59,183.59,0,0,1,12.29-14.86,81.9,81.9,0,0,1,8.27-7.84,37.62,37.62,0,0,1,5-3.45,14.92,14.92,0,0,1,5.92-2,6.84,6.84,0,0,1,3.17.45,12.57,12.57,0,0,1,2.73,1.54,23.9,23.9,0,0,1,4.33,4.25,61.57,61.57,0,0,1,6.21,9.57,151.58,151.58,0,0,1,7.92,17.58c2,5.12,3.37,9.33,4.3,12.26.47,1.46.81,2.6,1,3.38.1.36.18.66.25.88A1.21,1.21,0,0,1,288.88,273.58Z"
            style="fill: rgb(38, 50, 56); transform-origin: 253.11002349853516px 248.4844741821289px;" id="elsnvcuyqcaj"
            class="animable"></path>
        <path
            d="M306.52,204.19l.25.18.7.57,2.66,2.22,9.72,8.25.65.55-.82-.23A152.84,152.84,0,0,0,279.52,210a159.86,159.86,0,0,0-45.44,6.11l-.06,0-.06,0-7.7-4.51-2-1.22-.51-.32a.91.91,0,0,1-.17-.12l.19.08.54.29,2.07,1.14,7.77,4.39-.13,0a153.66,153.66,0,0,1,19.41-4.4c3.88-.64,8-1.11,12.43-1.49s9-.53,13.69-.44a152.24,152.24,0,0,1,22.35,1.87,148.73,148.73,0,0,1,17.91,4l-.17.32L310,207.32l-2.6-2.3-.66-.61A1.2,1.2,0,0,1,306.52,204.19Z"
            style="fill: rgb(38, 50, 56); transform-origin: 272.0399932861328px 210.1500015258789px;" id="eln9ff4uz7qjb"
            class="animable"></path>
        <g id="el2xtztda1h74">
            <g style="opacity: 0.2; transform-origin: 238.52069187164307px 334.76360034942627px;" class="animable">
                <path
                    d="M250.15,335.61c-.23,1.43-1.7,2.5-3.79,3.22a25.45,25.45,0,0,1-7.79,1.15,25.8,25.8,0,0,1-7.82-1c-2.1-.67-3.59-1.71-3.85-3.13s.81-2.94,2.9-4.17a19.42,19.42,0,0,1,17.35-.19C249.27,332.69,250.38,334.2,250.15,335.61Z"
                    style="fill: rgb(255, 255, 255); transform-origin: 238.52069187164307px 334.76360034942627px;"
                    id="elbjqazl7k1is" class="animable"></path>
            </g>
        </g>
        <path
            d="M184.65,340.77a1.36,1.36,0,0,1-.29-.17l-.8-.54-1.31-.88c-.53-.32-1.16-.65-1.87-1.05a43.6,43.6,0,0,0-12.87-4.37,63.13,63.13,0,0,0-9.38-.88,68.42,68.42,0,0,0-10.79.79,55.06,55.06,0,0,0-22.89,8.91,46,46,0,0,0-5,4.1,41.3,41.3,0,0,0-4.24,4.67,40.6,40.6,0,0,0-5.84,10.35,36.14,36.14,0,0,0-1.28,19.89,33.9,33.9,0,0,0,2.63,7.29,31.65,31.65,0,0,0,3.19,4.92l1.39,1.64,1.12,1.1.68.68c.15.16.23.24.22.25a1.33,1.33,0,0,1-.25-.21l-.73-.65-1.16-1.07-1.42-1.61a31.25,31.25,0,0,1-3.3-4.91,33.76,33.76,0,0,1-2.72-7.34,36.22,36.22,0,0,1,1.18-20.15,39.09,39.09,0,0,1,2.5-5.35,39.63,39.63,0,0,1,3.39-5.14,43.21,43.21,0,0,1,4.28-4.74,47.06,47.06,0,0,1,5.1-4.15,55,55,0,0,1,23.12-8.95,66.81,66.81,0,0,1,10.86-.75,63.35,63.35,0,0,1,9.44.94A42.79,42.79,0,0,1,180.48,338c.7.42,1.33.77,1.86,1.1l1.28.93.78.58C184.57,340.69,184.66,340.76,184.65,340.77Z"
            style="fill: rgb(38, 50, 56); transform-origin: 145.74340438842773px 364.95741271972656px;"
            id="els9u1hj1gz2" class="animable"></path>
        <path
            d="M141.76,357.58a8.54,8.54,0,0,1,.12,1.59c0,1.12.11,2.58.18,4.35.16,3.66.46,8.73.59,14.33,0,1.41,0,2.78,0,4.1a20.92,20.92,0,0,1-.28,3.84,7.26,7.26,0,0,1-3.54,5.34,4.33,4.33,0,0,1-4.3-.22,3,3,0,0,1-.85-.85,1.17,1.17,0,0,1-.19-.37,5,5,0,0,0,1.15,1.05,4.19,4.19,0,0,0,4,.07,7,7,0,0,0,3.24-5.11,21.57,21.57,0,0,0,.24-3.75c0-1.32,0-2.69-.05-4.08-.13-5.6-.38-10.67-.44-14.34,0-1.84,0-3.33,0-4.36A11.31,11.31,0,0,1,141.76,357.58Z"
            style="fill: rgb(38, 50, 56); transform-origin: 138.07193756103516px 374.58898544311523px;"
            id="elij4tv6pqiik" class="animable"></path>
        <path
            d="M169.41,357.58a10.81,10.81,0,0,1,.11,1.59c0,1.12.11,2.58.18,4.35.16,3.66.46,8.73.6,14.33,0,1.41,0,2.78,0,4.1a21.82,21.82,0,0,1-.29,3.84,7.24,7.24,0,0,1-3.54,5.34,4.34,4.34,0,0,1-4.3-.22,3.2,3.2,0,0,1-.85-.85c-.15-.23-.2-.37-.18-.37a4.83,4.83,0,0,0,1.14,1.05,4.19,4.19,0,0,0,4,.07,7,7,0,0,0,3.24-5.11,21.54,21.54,0,0,0,.25-3.75c0-1.32,0-2.69-.05-4.08-.14-5.6-.38-10.67-.44-14.34,0-1.84,0-3.33,0-4.36A8.42,8.42,0,0,1,169.41,357.58Z"
            style="fill: rgb(38, 50, 56); transform-origin: 165.71883487701416px 374.5882377624512px;"
            id="elcj70jb4jn5u" class="animable"></path>
        <path
            d="M203.74,381.47a4.72,4.72,0,0,1-.22.69c-.17.44-.36,1.11-.74,1.92a37.68,37.68,0,0,1-3.65,6.66,48.12,48.12,0,0,1-7.41,8.48,54.69,54.69,0,0,1-5.22,4.15,52.8,52.8,0,0,1-6.16,3.63,54.83,54.83,0,0,1-13,4.7,52.08,52.08,0,0,1-11.21,1.13c-3.2,0-5.79-.2-7.57-.32l-2.06-.17a3.31,3.31,0,0,1-.71-.09,3.61,3.61,0,0,1,.72,0l2.06.06c1.78.07,4.37.19,7.56.16a53.07,53.07,0,0,0,11.11-1.23,55.68,55.68,0,0,0,12.83-4.69,52.47,52.47,0,0,0,6.11-3.59,58.53,58.53,0,0,0,5.19-4.08,49.52,49.52,0,0,0,7.43-8.34A42.29,42.29,0,0,0,202.6,384c.4-.79.62-1.45.83-1.88A3,3,0,0,1,203.74,381.47Z"
            style="fill: rgb(38, 50, 56); transform-origin: 174.76499938964844px 397.15084171295166px;"
            id="elccdu1ts0in8" class="animable"></path>
        <path
            d="M141.16,356.47a7.88,7.88,0,0,0-.69-1,4,4,0,0,0-2.86-1.3,5.54,5.54,0,0,0-4.21,1.89,5.48,5.48,0,0,0-1.28,2.46,12.58,12.58,0,0,0-.3,3.05c0,4.3.05,8.21,0,11,0,1.32,0,2.44,0,3.34a6.21,6.21,0,0,1-.08,1.22,5,5,0,0,1-.12-1.22c0-.9-.07-2-.12-3.34-.07-2.82-.15-6.72-.18-11a12.91,12.91,0,0,1,.32-3.18,6.17,6.17,0,0,1,1.42-2.66,5.85,5.85,0,0,1,4.6-1.92,4.12,4.12,0,0,1,3,1.53,3.37,3.37,0,0,1,.46.8C141.15,356.35,141.18,356.46,141.16,356.47Z"
            style="fill: rgb(255, 255, 255); transform-origin: 136.24140691757202px 365.46706676483154px;"
            id="elnhv2nvtz538" class="animable"></path>
        <path
            d="M159.48,358.77c.14,0,.26,5.27.26,11.77s-.12,11.78-.26,11.78-.26-5.27-.26-11.78S159.34,358.77,159.48,358.77Z"
            style="fill: rgb(255, 255, 255); transform-origin: 159.47999572753906px 370.54498291015625px;"
            id="elpvdwtxm9rcm" class="animable"></path>
        <path
            d="M151.09,336.07a2.25,2.25,0,0,1-.61.05c-.41,0-1,0-1.76,0a45.24,45.24,0,0,0-6.42.7,42.51,42.51,0,0,0-33.55,31.85c-.2.73-.29,1.32-.39,1.71a2.81,2.81,0,0,1-.17.59,2.34,2.34,0,0,1,.06-.61c.07-.4.13-1,.3-1.74a38.51,38.51,0,0,1,1.84-6.23,41.12,41.12,0,0,1,31.85-25.93,38.3,38.3,0,0,1,6.47-.54c.77,0,1.37.05,1.77.06A3.27,3.27,0,0,1,151.09,336.07Z"
            style="fill: rgb(255, 255, 255); transform-origin: 129.63935089111328px 353.44495582580566px;"
            id="el8ek27qccpsd" class="animable"></path>
        <path
            d="M124.94,285.13a2.06,2.06,0,0,1-.18.57l-.62,1.58c-.28.68-.61,1.52-1,2.51s-.79,2.1-1.17,3.36-.86,2.62-1.26,4.12-.81,3.1-1.22,4.79a95,95,0,0,0-2.34,22.47c.06,1.74.08,3.4.21,4.94s.23,3,.38,4.29.31,2.49.45,3.53.29,1.93.42,2.65.21,1.24.28,1.68a2.18,2.18,0,0,1,.06.59,2.53,2.53,0,0,1-.16-.57l-.38-1.66c-.16-.72-.35-1.61-.51-2.64s-.39-2.22-.53-3.53-.34-2.75-.44-4.31-.19-3.21-.26-5A90,90,0,0,1,119.07,302c.43-1.7.81-3.31,1.28-4.8s.88-2.87,1.32-4.12.87-2.36,1.24-3.34.74-1.82,1-2.49.52-1.14.71-1.54A2.58,2.58,0,0,1,124.94,285.13Z"
            style="fill: rgb(255, 255, 255); transform-origin: 120.7961950302124px 313.6699981689453px;"
            id="el6sp49prud6u" class="animable"></path>
        <path
            d="M126.44,233.13s-.41.54-1,1.59a15.27,15.27,0,0,0-1.67,4.8,46.74,46.74,0,0,0-.62,7.57c-.08,2.87-.09,6,0,9.34.16,6.63.69,12.62,1.19,16.93.27,2.1.48,3.82.64,5.11l.18,1.39a3,3,0,0,1,0,.49,1.4,1.4,0,0,1-.13-.47c-.08-.38-.17-.83-.28-1.38-.22-1.19-.5-2.93-.8-5.09a153.09,153.09,0,0,1-1.35-17c-.08-3.32,0-6.49,0-9.37a42.7,42.7,0,0,1,.74-7.63,14.54,14.54,0,0,1,1.85-4.83,8.89,8.89,0,0,1,.84-1.13C126.3,233.24,126.42,233.12,126.44,233.13Z"
            style="fill: rgb(255, 255, 255); transform-origin: 124.50222837924957px 256.7397155761719px;"
            id="elajnlwns5hi6" class="animable"></path>
        <path
            d="M223.78,201.8a6.38,6.38,0,0,1-.64.26l-1.86.66-6.85,2.35a227.35,227.35,0,0,0-22.22,8.74,103.47,103.47,0,0,0-20.37,12.34c-2.39,1.9-4.23,3.55-5.47,4.73-.63.57-1.09,1.05-1.42,1.36a3,3,0,0,1-.52.45,3.94,3.94,0,0,1,.44-.52c.31-.33.75-.84,1.36-1.44a70.58,70.58,0,0,1,5.38-4.87A97.69,97.69,0,0,1,192,213.34a200.88,200.88,0,0,1,22.32-8.62c2.91-.95,5.27-1.7,6.91-2.2l1.89-.56A3.16,3.16,0,0,1,223.78,201.8Z"
            style="fill: rgb(255, 255, 255); transform-origin: 194.10499572753906px 217.24501037597656px;"
            id="eletbnrqzraca" class="animable"></path>
        <path
            d="M258.58,226.59s-.14.14-.45.36l-1.33.94c-1.16.8-2.82,2-4.84,3.52s-4.36,3.41-6.88,5.59-5.19,4.72-7.87,7.48-5.08,5.56-7.19,8.15-3.89,5-5.33,7.09-2.58,3.77-3.33,5l-.89,1.36a2.82,2.82,0,0,1-.34.46,1.92,1.92,0,0,1,.25-.51c.21-.38.48-.85.81-1.42.7-1.23,1.79-3,3.2-5.07s3.18-4.55,5.26-7.18,4.51-5.41,7.18-8.21,5.4-5.29,7.93-7.48,4.93-4,7-5.53,3.75-2.64,4.95-3.39l1.39-.86A2.88,2.88,0,0,1,258.58,226.59Z"
            style="fill: rgb(255, 255, 255); transform-origin: 239.35497283935547px 246.56497192382812px;"
            id="eljm455xsdogl" class="animable"></path>
        <path
            d="M412.7,296.16a12.53,12.53,0,0,1,1.19,2.53,53.42,53.42,0,0,1,3.3,13,12.62,12.62,0,0,1,.16,2.78,17.26,17.26,0,0,1-.53-2.73c-.29-1.68-.73-4-1.37-6.53s-1.36-4.79-1.91-6.41A18.41,18.41,0,0,1,412.7,296.16Z"
            style="fill: rgb(255, 255, 255); transform-origin: 415.0339050292969px 305.31500244140625px;"
            id="el49notbyhhiw" class="animable"></path>
        <path
            d="M388.78,410.79s-.17.14-.5.38l-1.47,1-2.4,1.69L382.88,415l-1.79,1.16a199.47,199.47,0,0,1-22.17,12.66c-2.42,1.18-5,2.36-7.67,3.58l-4.15,1.76L345,435l-2.2.84-4.52,1.73-4.72,1.63c-1.59.58-3.23,1.07-4.9,1.58s-3.33,1.07-5.06,1.51a206.53,206.53,0,0,1-21.82,4.91,183.92,183.92,0,0,1-23.88,2.57,161.1,161.1,0,0,1-24-.75l-2.89-.28c-.95-.1-1.9-.26-2.84-.39l-5.61-.79-5.45-1-2.67-.51-2.63-.6a192.39,192.39,0,0,1-36-11.7,153.17,153.17,0,0,1-22.49-12c-2.58-1.58-4.41-3-5.72-3.94l-1.45-1.07c-.33-.24-.49-.38-.49-.38l.52.34,1.49,1c1.32.88,3.17,2.31,5.76,3.86a158.27,158.27,0,0,0,22.53,11.88A195.22,195.22,0,0,0,231.87,445l2.62.59,2.67.5,5.44,1,5.59.78c.94.13,1.89.29,2.84.38l2.88.28a160.23,160.23,0,0,0,23.94.74,183.05,183.05,0,0,0,23.81-2.55,211,211,0,0,0,21.78-4.87c1.73-.44,3.39-1,5.06-1.5s3.29-1,4.88-1.56l4.72-1.62,4.51-1.71,2.2-.84,2.13-.89,4.15-1.74c2.67-1.21,5.25-2.37,7.67-3.54A209.49,209.49,0,0,0,381,416q.94-.62,1.8-1.14l1.55-1.06,2.42-1.64,1.5-1Z"
            style="fill: rgb(38, 50, 56); transform-origin: 277.2199935913086px 430.35570335388184px;"
            id="elr169xrgg7dp" class="animable"></path>
        <polygon
            points="345.7 421.5 365.8 472.89 379.54 472.89 382.53 468.42 386.06 472.89 390.91 472.89 392.72 391.44 345.7 421.5"
            style="fill: rgb(255, 114, 94); transform-origin: 369.2100067138672px 432.1650085449219px;"
            id="ell3m3hkau6lg" class="animable"></polygon>
        <path d="M219.45,428.73l17,44.16h15.62l3.19-5.11,3.08,5.11h3.87s1.7-49.82,0-51.23S219.45,428.73,219.45,428.73Z"
            style="fill: rgb(255, 114, 94); transform-origin: 241.2077751159668px 447.1959285736084px;"
            id="elp5x8tla11sb" class="animable"></path>
        <path
            d="M417.89,330a1.17,1.17,0,0,1,0,.3c0,.22,0,.5-.07.86-.08.79-.18,1.89-.31,3.29-.07.72-.15,1.52-.24,2.38s-.29,1.81-.45,2.82c-.36,2-.65,4.32-1.3,6.81-.29,1.26-.6,2.57-.92,3.94s-.8,2.75-1.22,4.2c-.8,2.92-2,5.94-3.16,9.13A118.95,118.95,0,0,1,386.76,401c-2.38,2.44-4.58,4.81-6.88,6.79-1.12,1-2.17,2-3.26,2.92l-3.14,2.54c-2,1.66-3.93,2.92-5.59,4.11-.84.59-1.61,1.15-2.34,1.63l-2.05,1.24-2.83,1.7-.75.43-.26.14s.07-.07.23-.18l.72-.48,2.79-1.78,2-1.28c.73-.49,1.48-1.06,2.31-1.65,1.64-1.22,3.58-2.5,5.53-4.17l3.11-2.55c1.08-.89,2.11-1.92,3.23-2.93,2.27-2,4.46-4.36,6.81-6.8a121,121,0,0,0,23.38-37.13c1.18-3.17,2.37-6.17,3.18-9.08.43-1.44.91-2.82,1.25-4.18s.65-2.66,1-3.91c.68-2.48,1-4.78,1.37-6.78.18-1,.37-1.94.5-2.8s.19-1.65.28-2.37c.17-1.4.31-2.5.4-3.28.05-.35.09-.63.12-.86A1.19,1.19,0,0,1,417.89,330Z"
            style="fill: rgb(255, 255, 255); transform-origin: 388.7798328399658px 376.25001525878906px;"
            id="elt3sv26n8n4f" class="animable"></path>
        <g id="eltbikvquyck">
            <g style="opacity: 0.2; transform-origin: 377.1471652984619px 317.6441307067871px;" class="animable">
                <path
                    d="M396.15,286.68c-4.56-11.31-14.51-22-26-26.65a14.86,14.86,0,0,0-20.31,13,1.7,1.7,0,0,1,0,.22c-.36,7.24,2.49,14.26,6,20.62s7.66,12.38,10.37,19.1a48.7,48.7,0,0,1,.4,35c-2.68,7.12-7.12,14.71-3.1,21.8,2.64,4.66,7.95,6.95,13.28,6.47,10.21-.93,15.51-10.15,20.35-18.53,3.89-6.74,7.1-17.22,7.28-25.13A110.53,110.53,0,0,0,396.15,286.68Z"
                    style="fill: rgb(255, 255, 255); transform-origin: 377.1471652984619px 317.6441307067871px;"
                    id="elflx04a34s8o" class="animable"></path>
            </g>
        </g>
        <g id="el3tnlwc8rhyx">
            <g style="opacity: 0.2; transform-origin: 358.32000732421875px 257.5299987792969px;" class="animable">
                <path d="M357.91,257.53l.76,0,.06,0Z"
                    style="fill: rgb(255, 255, 255); transform-origin: 358.32000732421875px 257.5299987792969px;"
                    id="elnabikd1c1o" class="animable"></path>
            </g>
        </g>
        <path
            d="M241.38,318.62c-.37.1-1-1.39-1.94-3.55a12.07,12.07,0,0,0-2.17-3.27,5.53,5.53,0,0,0-3.75-1.84,6.23,6.23,0,0,0-4,1.52,9.94,9.94,0,0,0-2.36,3c-1,2.07-1.45,3.6-1.84,3.53s-.6-1.64.13-4.22a9.68,9.68,0,0,1,2.45-4.12,8,8,0,0,1,5.67-2.35,6.79,6.79,0,0,1,3.22.92,8.41,8.41,0,0,1,2.26,1.92,11,11,0,0,1,2.11,4.25C241.78,317,241.7,318.53,241.38,318.62Z"
            style="fill: rgb(38, 50, 56); transform-origin: 233.2944793701172px 312.9723606109619px;" id="el04tcnnwn7qa"
            class="animable"></path>
        <path d="M165.43,312.51a7.19,7.19,0,1,1-7.19-7.19A7.19,7.19,0,0,1,165.43,312.51Z"
            style="fill: rgb(38, 50, 56); transform-origin: 158.23999786376953px 312.510009765625px;" id="elgk1vowz5a5"
            class="animable"></path>
        <path
            d="M393.79,252.37a3.32,3.32,0,0,1-.49-.54L392,250.22c-.58-.71-1.28-1.57-2.14-2.53s-1.79-2.11-2.91-3.29-2.3-2.52-3.65-3.87-2.81-2.79-4.35-4.28c-3.15-2.93-6.72-6-10.64-9.07s-7.84-5.69-11.47-8c-1.84-1.12-3.57-2.21-5.24-3.13s-3.23-1.8-4.67-2.55-2.76-1.4-3.92-2-2.16-1.05-3-1.42l-1.9-.89a3.37,3.37,0,0,1-.65-.35,4.76,4.76,0,0,1,.69.25l1.94.8c.84.35,1.87.79,3,1.35s2.52,1.15,4,1.91,3,1.55,4.71,2.51,3.43,2,5.28,3.09c3.66,2.29,7.59,4.95,11.54,8s7.51,6.17,10.65,9.13c1.54,1.51,3,2.93,4.33,4.33s2.54,2.7,3.62,3.92,2,2.36,2.85,3.35,1.53,1.87,2.07,2.6l1.27,1.67A3.17,3.17,0,0,1,393.79,252.37Z"
            style="fill: rgb(255, 255, 255); transform-origin: 365.625px 230.6050033569336px;" id="elploazs603n"
            class="animable"></path>
        <path
            d="M318.19,220.06a4.11,4.11,0,0,1-.78-.23l-2.19-.75c-1-.35-2.11-.75-3.49-1.15s-2.91-.94-4.66-1.37l-2.73-.72c-.95-.25-2-.44-3-.68-2.06-.49-4.29-.85-6.63-1.27a130.33,130.33,0,0,0-15.4-1.45,127.07,127.07,0,0,0-15.46.57c-2.36.28-4.62.51-6.7.88-1,.18-2.06.31-3,.51l-2.77.56c-1.77.33-3.34.76-4.73,1.1s-2.58.65-3.55.94l-2.23.63a6.3,6.3,0,0,1-.79.19,3.68,3.68,0,0,1,.76-.29l2.2-.72c1-.32,2.14-.69,3.53-1s3-.82,4.73-1.17l2.77-.6c1-.2,2-.35,3-.53,2.09-.4,4.35-.65,6.72-.94a114.29,114.29,0,0,1,31,.89c2.35.43,4.59.81,6.66,1.32,1,.25,2,.45,3,.71l2.73.76c1.75.45,3.29,1,4.65,1.44s2.53.86,3.47,1.24l2.16.85A4.94,4.94,0,0,1,318.19,220.06Z"
            style="fill: rgb(255, 255, 255); transform-origin: 279.13499450683594px 215.98580312728882px;"
            id="eldbxfnfbye4" class="animable"></path>
    </g>
    <g id="freepik--Plants--inject-37" style="transform-origin: 198.53747749328613px 452.9873809814453px;"
        class="animable">
        <path
            d="M357.9,432a7.77,7.77,0,0,1,4,4.55,13.74,13.74,0,0,1,.53,6.15c-.45,4-2.73,8-5.17,11.23-3.37-2.94-4.14-8.06-4.37-10.69-.36-4.14,1.5-11.86,5-11.24"
            style="fill: rgb(69, 90, 100); transform-origin: 357.7057456970215px 442.9473819732666px;"
            id="elidwpvwc2eok" class="animable"></path>
        <path
            d="M361.19,460.54a6.61,6.61,0,0,1,2.14-6.29,8.81,8.81,0,0,1,6.47-2,3.69,3.69,0,0,1,2.84,1.28,2.81,2.81,0,0,1,0,2.86,5.67,5.67,0,0,1-2.12,2.09c-2.91,1.83-6.07,3.07-9.37,2.08"
            style="fill: rgb(69, 90, 100); transform-origin: 367.0454807281494px 456.5603485107422px;"
            id="el1z4v5vdp2t7" class="animable"></path>
        <path
            d="M356.88,472.79A4.15,4.15,0,0,1,357,472c.1-.57.24-1.32.4-2.22a23.21,23.21,0,0,1,2.29-7.09,14.33,14.33,0,0,1,5.09-5.41,9.5,9.5,0,0,1,2.08-.91c.25-.09.46-.12.59-.16l.22,0a15.18,15.18,0,0,0-2.78,1.28A14.65,14.65,0,0,0,360,462.8a25.12,25.12,0,0,0-2.35,7c-.2.93-.36,1.69-.49,2.21A5.73,5.73,0,0,1,356.88,472.79Z"
            style="fill: rgb(38, 50, 56); transform-origin: 362.2749938964844px 464.5px;" id="elqbavypzw9yg"
            class="animable"></path>
        <path
            d="M357,438a1.26,1.26,0,0,1,0,.36c0,.26,0,.61.06,1,0,.89.1,2.19.16,3.79.1,3.2.18,7.63.16,12.52s-.14,9.32-.27,12.52c-.07,1.6-.13,2.89-.19,3.79,0,.42,0,.76-.07,1a2.19,2.19,0,0,1,0,.36,1.48,1.48,0,0,1,0-.36c0-.27,0-.61,0-1,0-.93,0-2.21.09-3.79.08-3.2.17-7.62.19-12.51s0-9.31-.08-12.51c0-1.58,0-2.87-.06-3.8,0-.42,0-.76,0-1A2.45,2.45,0,0,1,357,438Z"
            style="fill: rgb(38, 50, 56); transform-origin: 357.11104786396027px 455.6699676513672px;" id="ellf2bpgu4qd"
            class="animable"></path>
        <path
            d="M355.37,463a15.46,15.46,0,0,0-8.44-11.32c-1.13-.54-2.6-.89-3.52-.06s-.72,2.34-.27,3.51a13.22,13.22,0,0,0,12.15,8.2"
            style="fill: rgb(69, 90, 100); transform-origin: 349.06546115875244px 457.22755908966064px;"
            id="elbs7t1v212ig" class="animable"></path>
        <path
            d="M347.47,455.44a3.69,3.69,0,0,1,.72.31,8.38,8.38,0,0,1,.8.43,11.77,11.77,0,0,1,1,.64,13.53,13.53,0,0,1,1.18.89,14.2,14.2,0,0,1,1.25,1.14,16.76,16.76,0,0,1,2.37,3,16.22,16.22,0,0,1,1.57,3.54,15.34,15.34,0,0,1,.6,3.1,10.63,10.63,0,0,1,.05,1.21,6.62,6.62,0,0,1,0,.92,4,4,0,0,1-.09.77c-.07,0,.05-1.11-.15-2.88a12,12,0,0,0-.23-1.43,14.24,14.24,0,0,0-.42-1.61,17.23,17.23,0,0,0-1.56-3.47,18,18,0,0,0-2.31-3c-.42-.41-.81-.81-1.22-1.14a14,14,0,0,0-1.14-.9C348.46,456,347.44,455.49,347.47,455.44Z"
            style="fill: rgb(38, 50, 56); transform-origin: 352.2476749420166px 463.41502380371094px;"
            id="eljlhdmtqw1so" class="animable"></path>
        <path
            d="M33.68,433.58a7.71,7.71,0,0,1,5,3.44,13.62,13.62,0,0,1,2,5.85c.53,4-.69,8.45-2.29,12.14-4-2-6-6.82-6.83-9.31-1.36-3.93-1.42-11.87,2.12-12.12"
            style="fill: rgb(69, 90, 100); transform-origin: 35.75202178955078px 444.2949981689453px;"
            id="elskhg7h59ktc" class="animable"></path>
        <path
            d="M43.78,460.46a6.62,6.62,0,0,1,.55-6.61,8.78,8.78,0,0,1,5.79-3.53,3.69,3.69,0,0,1,3.07.55,2.85,2.85,0,0,1,.74,2.77,5.82,5.82,0,0,1-1.56,2.54c-2.38,2.48-5.15,4.44-8.59,4.28"
            style="fill: rgb(69, 90, 100); transform-origin: 48.58746671676636px 455.3330011367798px;"
            id="elas5w90lgg7n" class="animable"></path>
        <path
            d="M42.57,473.4a4.65,4.65,0,0,1-.09-.83c0-.58-.08-1.34-.14-2.25a23,23,0,0,1,.51-7.43,14.14,14.14,0,0,1,3.62-6.48,9.76,9.76,0,0,1,1.79-1.4c.23-.14.42-.22.55-.29s.19-.09.2-.08a14.33,14.33,0,0,0-2.39,1.91A14.58,14.58,0,0,0,43.13,463a24.86,24.86,0,0,0-.58,7.35c0,.95.05,1.73.05,2.26A4.55,4.55,0,0,1,42.57,473.4Z"
            style="fill: rgb(38, 50, 56); transform-origin: 45.62413740158081px 464.01880264282227px;"
            id="elrmxw4cqtcti" class="animable"></path>
        <path
            d="M34.26,439.62a2.6,2.6,0,0,1,.13.34c.08.25.18.58.31,1,.26.86.62,2.11,1.06,3.65.88,3.08,2,7.35,3.2,12.1s2.12,9.08,2.77,12.21c.32,1.57.57,2.85.73,3.73.08.41.14.75.19,1a2.47,2.47,0,0,1,0,.36,2.24,2.24,0,0,1-.1-.35l-.24-1c-.2-.91-.48-2.17-.83-3.7-.7-3.13-1.68-7.44-2.85-12.19s-2.28-9-3.11-12.12c-.4-1.52-.73-2.76-1-3.66-.11-.41-.19-.75-.26-1A2.29,2.29,0,0,1,34.26,439.62Z"
            style="fill: rgb(38, 50, 56); transform-origin: 38.45454025268555px 456.8149871826172px;" id="elolt40s2a6p"
            class="animable"></path>
        <path
            d="M38.72,464.23a15.47,15.47,0,0,0-10.93-8.94c-1.22-.25-2.73-.23-3.43.8s-.12,2.45.6,3.47a13.2,13.2,0,0,0,13.77,5"
            style="fill: rgb(69, 90, 100); transform-origin: 31.38693332672119px 460.0480089187622px;"
            id="elzes9gh4rwcg" class="animable"></path>
        <path
            d="M29.24,458.84A4.25,4.25,0,0,1,30,459a8,8,0,0,1,.88.22,11.9,11.9,0,0,1,1.16.38,13.18,13.18,0,0,1,1.35.57,15.63,15.63,0,0,1,1.49.8,15.94,15.94,0,0,1,5.43,5.44,16.67,16.67,0,0,1,.78,1.5c.23.48.39.94.55,1.37a10.87,10.87,0,0,1,.34,1.16,5.94,5.94,0,0,1,.2.89,3.42,3.42,0,0,1,.1.78c-.06,0-.22-1.09-.84-2.76a13.07,13.07,0,0,0-.57-1.34c-.21-.47-.5-1-.79-1.46a18.38,18.38,0,0,0-2.36-3,17.9,17.9,0,0,0-3-2.36c-.5-.3-1-.59-1.45-.81a13.54,13.54,0,0,0-1.33-.6C30.32,459.1,29.22,458.9,29.24,458.84Z"
            style="fill: rgb(38, 50, 56); transform-origin: 35.75986433029175px 465.47499084472656px;"
            id="eldsdfwhynig9" class="animable"></path>
    </g>
    <defs>
        <filter id="active" height="200%">
            <feMorphology in="SourceAlpha" result="DILATED" operator="dilate" radius="2"></feMorphology>
            <feFlood flood-color="#32DFEC" flood-opacity="1" result="PINK"></feFlood>
            <feComposite in="PINK" in2="DILATED" operator="in" result="OUTLINE"></feComposite>
            <feMerge>
                <feMergeNode in="OUTLINE"></feMergeNode>
                <feMergeNode in="SourceGraphic"></feMergeNode>
            </feMerge>
        </filter>
        <filter id="hover" height="200%">
            <feMorphology in="SourceAlpha" result="DILATED" operator="dilate" radius="2"></feMorphology>
            <feFlood flood-color="#ff0000" flood-opacity="0.5" result="PINK"></feFlood>
            <feComposite in="PINK" in2="DILATED" operator="in" result="OUTLINE"></feComposite>
            <feMerge>
                <feMergeNode in="OUTLINE"></feMergeNode>
                <feMergeNode in="SourceGraphic"></feMergeNode>
            </feMerge>
            <feColorMatrix type="matrix"
                values="0   0   0   0   0                0   1   0   0   0                0   0   0   0   0                0   0   0   1   0 ">
            </feColorMatrix>
        </filter>
    </defs>
</svg>