<svg width="55" height="55" viewBox="0 0 375 375" xmlns="http://www.w3.org/2000/svg">
  <defs>
    <clipPath id="a">
      <path d="M 103 109.609375 L 304.351562 109.609375 L 304.351562 282.859375 L 103 282.859375 Z M 103 109.609375" />
    </clipPath>
  </defs>
  <path fill="#E8713C"
    d="M 355.008 229.943 C 355.008 229.943 360.024 181.225 355.008 178.422 C 349.955 175.626 348.286 183.675 348.286 183.675 L 320.969 168.638 C 319.938 160.559 317.942 152.723 315.085 145.22 C 315.085 145.22 325.287 81.162 313.472 81.15 C 303.573 81.15 285.917 83.844 271.79 91.359 C 248.734 75.333 219.426 65.72 187.492 65.72 C 113.335 65.72 53.202 117.531 53.202 181.436 C 53.202 214.973 69.779 245.172 96.255 266.323 C 106.536 325.576 115.04 327.189 115.04 327.189 L 157.013 327.189 C 159.475 326.122 163.842 308.562 166.73 295.752 C 173.498 296.662 180.431 297.135 187.492 297.135 C 193.527 297.135 199.471 296.789 205.282 296.134 C 208.175 308.896 212.476 326.122 214.907 327.189 L 256.886 327.189 C 256.886 327.189 264.971 325.667 274.918 270.599 C 274.918 270.599 353.285 251.396 355.008 229.943"
    style="" />
  <g clip-path="url(#a)" transform="matrix(1.552759, 0, 0, 1.552759, -111.359764, -108.250481)" style="">
    <path stroke-linecap="round" transform="matrix(.09794 0 0 -.098 -17.496 404.565)" fill="none"
      stroke-linejoin="round"
      d="M 3245.207312 1905.909716 C 3245.207312 1905.909716 3278.190677 2226.088669 3245.207312 2244.505337 C 3211.984648 2262.882142 3201.016782 2209.98405 3201.016782 2209.98405 L 3021.383074 2308.804223 C 3014.602938 2361.901629 3001.481382 2413.404518 2982.696418 2462.714947 C 2982.696418 2462.714947 3049.81976 2883.707218 2972.087501 2883.786944 C 2906.9982 2883.786944 2790.89835 2866.087808 2698.010493 2816.697654 C 2546.41464 2922.015481 2353.699259 2985.198205 2143.714474 2985.198205 C 1656.103081 2985.198205 1260.701531 2644.689165 1260.701531 2224.693467 C 1260.701531 2004.291397 1369.70218 1805.813931 1543.79213 1666.811938 C 1611.39407 1277.391097 1667.310246 1266.787561 1667.310246 1266.787561 L 1943.301645 1266.787561 C 1959.494203 1273.803435 1988.210072 1389.206581 2007.194451 1473.397062 C 2051.704046 1467.417625 2097.290487 1464.308317 2143.714474 1464.308317 C 2183.398208 1464.308317 2222.483695 1466.580503 2260.691753 1470.885699 C 2279.716015 1387.01412 2307.993169 1273.803435 2323.986312 1266.787561 L 2600.017594 1266.787561 C 2600.017594 1266.787561 2653.181833 1276.793154 2718.590199 1638.708581 C 2718.590199 1638.708581 3233.880498 1764.914577 3245.207312 1905.909716 Z M 3245.207312 1905.909716"
      stroke="#1C293C" stroke-width="50" stroke-miterlimit="10" />
  </g>
  <path fill="#1C293C"
    d="M 308.486 168.014 C 308.486 173.8 305.337 178.471 301.474 178.471 C 297.598 178.471 294.451 173.8 294.451 168.014 C 294.451 162.246 297.598 157.575 301.474 157.575 C 305.337 157.575 308.486 162.246 308.486 168.014"
    style="" />
  <path stroke-linecap="round" fill="#E8713C" stroke-linejoin="round"
    d="M 155.786 85.1 C 155.786 85.1 186.374 76.134 226.659 85.1" stroke="#1C293C" stroke-miterlimit="10"
    style="stroke-width: 4px;" />
  <path stroke-linecap="round" fill="#E8713C" stroke-linejoin="round"
    d="M 54.094 167.986 C 54.094 167.986 -1.931 147.217 15.828 130.813 C 29.972 117.772 45.548 160.179 13.687 178.426"
    stroke="#1C293C" stroke-miterlimit="10" style="stroke-width: 6px; fill-opacity: 0;" />
  <path stroke-linecap="round" fill="#E8713C" stroke-linejoin="round"
    d="M 304.568 123.826 C 304.568 123.826 295.367 112.416 284.656 105.003 L 308.474 95.128" stroke="#1C293C"
    stroke-miterlimit="10" style="stroke-width: 4px;" />
  <g transform="matrix(1.552759, 0, 0, 1.552759, -111.359764, -108.250481)" style="">
    <g>
      <g>
        <path
          d="M 27.40625 -63.234375 C 30.769531 -63.234375 34.054688 -62.742188 37.265625 -61.765625 C 40.472656 -60.785156 42.859375 -59.820312 44.421875 -58.875 L 46.671875 -57.359375 L 40.953125 -46.078125 C 40.503906 -46.378906 39.875 -46.765625 39.0625 -47.234375 C 38.257812 -47.710938 36.753906 -48.351562 34.546875 -49.15625 C 32.335938 -49.957031 30.28125 -50.359375 28.375 -50.359375 C 26.019531 -50.359375 24.203125 -49.859375 22.921875 -48.859375 C 21.640625 -47.859375 21 -46.503906 21 -44.796875 C 21 -43.941406 21.300781 -43.148438 21.90625 -42.421875 C 22.507812 -41.691406 23.535156 -40.910156 24.984375 -40.078125 C 26.441406 -39.253906 27.722656 -38.59375 28.828125 -38.09375 C 29.929688 -37.59375 31.640625 -36.835938 33.953125 -35.828125 C 37.960938 -34.128906 41.382812 -31.8125 44.21875 -28.875 C 47.0625 -25.9375 48.484375 -22.609375 48.484375 -18.890625 C 48.484375 -15.328125 47.84375 -12.21875 46.5625 -9.5625 C 45.28125 -6.90625 43.519531 -4.820312 41.28125 -3.3125 C 39.050781 -1.800781 36.582031 -0.6875 33.875 0.03125 C 31.164062 0.757812 28.226562 1.125 25.0625 1.125 C 22.351562 1.125 19.691406 0.847656 17.078125 0.296875 C 14.472656 -0.253906 12.289062 -0.941406 10.53125 -1.765625 C 8.78125 -2.597656 7.203125 -3.414062 5.796875 -4.21875 C 4.390625 -5.019531 3.359375 -5.695312 2.703125 -6.25 L 1.734375 -7.078125 L 8.8125 -18.96875 C 9.414062 -18.46875 10.242188 -17.828125 11.296875 -17.046875 C 12.347656 -16.273438 14.210938 -15.234375 16.890625 -13.921875 C 19.578125 -12.617188 21.953125 -11.96875 24.015625 -11.96875 C 29.984375 -11.96875 32.96875 -14 32.96875 -18.0625 C 32.96875 -18.914062 32.753906 -19.707031 32.328125 -20.4375 C 31.898438 -21.164062 31.144531 -21.894531 30.0625 -22.625 C 28.988281 -23.351562 28.035156 -23.929688 27.203125 -24.359375 C 26.378906 -24.785156 25.023438 -25.4375 23.140625 -26.3125 C 21.265625 -27.1875 19.875 -27.851562 18.96875 -28.3125 C 15.207031 -30.164062 12.296875 -32.484375 10.234375 -35.265625 C 8.179688 -38.054688 7.15625 -41.054688 7.15625 -44.265625 C 7.15625 -49.835938 9.210938 -54.390625 13.328125 -57.921875 C 17.441406 -61.460938 22.132812 -63.234375 27.40625 -63.234375 Z M 27.40625 -63.234375"
          transform="translate(185.925 235.682)" />
      </g>
    </g>
  </g>
  <path fill="none"
    d="M 175.124 126.866 C 180.554 126.866 185.866 127.66 191.059 129.243 C 196.27 130.832 200.133 132.397 202.65 133.944 L 206.307 136.383 L 197.034 154.634 C 196.299 154.161 195.281 153.536 193.97 152.76 C 192.684 151.988 190.259 150.957 186.686 149.672 C 183.119 148.361 179.789 147.707 176.702 147.707 C 172.893 147.707 169.95 148.519 167.871 150.145 C 165.808 151.771 164.777 153.96 164.777 156.713 C 164.777 158.103 165.263 159.382 166.233 160.547 C 167.204 161.718 168.871 162.98 171.231 164.326 C 173.59 165.654 175.658 166.722 177.442 167.534 C 179.225 168.348 181.978 169.567 185.709 171.193 C 192.205 173.971 197.749 177.731 202.328 182.492 C 206.926 187.23 209.224 192.598 209.224 198.602 C 209.224 204.371 208.181 209.405 206.102 213.706 C 204.04 218.005 201.193 221.372 197.568 223.81 C 193.964 226.249 189.967 228.056 185.588 229.221 C 181.208 230.392 176.46 230.98 171.346 230.98 C 166.968 230.98 162.666 230.53 158.444 229.639 C 154.222 228.747 150.687 227.637 147.836 226.309 C 144.998 224.963 142.445 223.647 140.164 222.355 C 137.901 221.05 136.238 219.946 135.172 219.055 L 133.594 217.72 L 145.039 198.481 C 146.01 199.293 147.345 200.336 149.049 201.605 C 150.754 202.854 153.78 204.54 158.117 206.656 C 162.478 208.762 166.323 209.811 169.654 209.811 C 179.304 209.811 184.132 206.518 184.132 199.942 C 184.132 198.554 183.787 197.273 183.088 196.104 C 182.397 194.939 181.178 193.768 179.438 192.598 C 177.691 191.408 176.144 190.469 174.797 189.77 C 173.469 189.079 171.28 188.029 168.228 186.623 C 165.196 185.197 162.946 184.118 161.477 183.383 C 155.393 180.37 150.687 176.615 147.358 172.114 C 144.027 167.614 142.366 162.767 142.366 157.575 C 142.366 148.561 145.695 141.186 152.354 135.461 C 159.01 129.734 166.603 126.866 175.124 126.866 Z M 175.124 126.866"
    stroke="#000" stroke-width="3.921" style="" />
</svg>